<svg width="529" height="100" viewBox="0 0 529 100" fill="none" xmlns="http://www.w3.org/2000/svg">
<rect y="7" width="523" height="93" rx="46.5" fill="#F2DC5D"/>
<rect x="6" width="523" height="93" rx="46.5" fill="#FFF2AA"/>
<path d="M133.178 46.148C134.522 46.388 135.662 47.096 136.598 48.272C137.534 49.448 138.002 50.78 138.002 52.268C138.002 53.54 137.666 54.692 136.994 55.724C136.346 56.732 135.398 57.536 134.15 58.136C132.902 58.712 131.45 59 129.794 59H119.786V33.98H129.326C131.03 33.98 132.494 34.268 133.718 34.844C134.942 35.42 135.866 36.2 136.49 37.184C137.114 38.144 137.426 39.224 137.426 40.424C137.426 41.864 137.042 43.064 136.274 44.024C135.506 44.984 134.474 45.692 133.178 46.148ZM123.89 44.492H128.966C130.31 44.492 131.354 44.192 132.098 43.592C132.866 42.968 133.25 42.08 133.25 40.928C133.25 39.8 132.866 38.924 132.098 38.3C131.354 37.652 130.31 37.328 128.966 37.328H123.89V44.492ZM129.434 55.652C130.826 55.652 131.918 55.316 132.71 54.644C133.502 53.972 133.898 53.036 133.898 51.836C133.898 50.612 133.478 49.64 132.638 48.92C131.798 48.2 130.682 47.84 129.29 47.84H123.89V55.652H129.434ZM160.426 39.164V59H156.322V56.66C155.674 57.476 154.822 58.124 153.766 58.604C152.734 59.06 151.63 59.288 150.454 59.288C148.894 59.288 147.49 58.964 146.242 58.316C145.018 57.668 144.046 56.708 143.326 55.436C142.63 54.164 142.282 52.628 142.282 50.828V39.164H146.35V50.216C146.35 51.992 146.794 53.36 147.682 54.32C148.57 55.256 149.782 55.724 151.318 55.724C152.854 55.724 154.066 55.256 154.954 54.32C155.866 53.36 156.322 51.992 156.322 50.216V39.164H160.426ZM167.929 36.536C167.185 36.536 166.561 36.284 166.057 35.78C165.553 35.276 165.301 34.652 165.301 33.908C165.301 33.164 165.553 32.54 166.057 32.036C166.561 31.532 167.185 31.28 167.929 31.28C168.649 31.28 169.261 31.532 169.765 32.036C170.269 32.54 170.521 33.164 170.521 33.908C170.521 34.652 170.269 35.276 169.765 35.78C169.261 36.284 168.649 36.536 167.929 36.536ZM169.945 39.164V59H165.841V39.164H169.945ZM179.437 32.36V59H175.333V32.36H179.437ZM183.457 48.992C183.457 47 183.865 45.236 184.681 43.7C185.521 42.164 186.649 40.976 188.065 40.136C189.505 39.272 191.101 38.84 192.853 38.84C194.149 38.84 195.421 39.128 196.669 39.704C197.941 40.256 198.949 41 199.693 41.936V32.36H203.833V59H199.693V56.012C199.021 56.972 198.085 57.764 196.885 58.388C195.709 59.012 194.353 59.324 192.817 59.324C191.089 59.324 189.505 58.892 188.065 58.028C186.649 57.14 185.521 55.916 184.681 54.356C183.865 52.772 183.457 50.984 183.457 48.992ZM199.693 49.064C199.693 47.696 199.405 46.508 198.829 45.5C198.277 44.492 197.545 43.724 196.633 43.196C195.721 42.668 194.737 42.404 193.681 42.404C192.625 42.404 191.641 42.668 190.729 43.196C189.817 43.7 189.073 44.456 188.497 45.464C187.945 46.448 187.669 47.624 187.669 48.992C187.669 50.36 187.945 51.56 188.497 52.592C189.073 53.624 189.817 54.416 190.729 54.968C191.665 55.496 192.649 55.76 193.681 55.76C194.737 55.76 195.721 55.496 196.633 54.968C197.545 54.44 198.277 53.672 198.829 52.664C199.405 51.632 199.693 50.432 199.693 49.064ZM226.819 59.252C225.139 59.252 223.627 58.964 222.283 58.388C220.939 57.788 219.883 56.948 219.115 55.868C218.347 54.788 217.963 53.528 217.963 52.088H222.355C222.451 53.168 222.871 54.056 223.615 54.752C224.383 55.448 225.451 55.796 226.819 55.796C228.235 55.796 229.339 55.46 230.131 54.788C230.923 54.092 231.319 53.204 231.319 52.124C231.319 51.284 231.067 50.6 230.563 50.072C230.083 49.544 229.471 49.136 228.727 48.848C228.007 48.56 226.999 48.248 225.703 47.912C224.071 47.48 222.739 47.048 221.707 46.616C220.699 46.16 219.835 45.464 219.115 44.528C218.395 43.592 218.035 42.344 218.035 40.784C218.035 39.344 218.395 38.084 219.115 37.004C219.835 35.924 220.843 35.096 222.139 34.52C223.435 33.944 224.935 33.656 226.639 33.656C229.063 33.656 231.043 34.268 232.579 35.492C234.139 36.692 235.003 38.348 235.171 40.46H230.635C230.563 39.548 230.131 38.768 229.339 38.12C228.547 37.472 227.503 37.148 226.207 37.148C225.031 37.148 224.071 37.448 223.327 38.048C222.583 38.648 222.211 39.512 222.211 40.64C222.211 41.408 222.439 42.044 222.895 42.548C223.375 43.028 223.975 43.412 224.695 43.7C225.415 43.988 226.399 44.3 227.647 44.636C229.303 45.092 230.647 45.548 231.679 46.004C232.735 46.46 233.623 47.168 234.343 48.128C235.087 49.064 235.459 50.324 235.459 51.908C235.459 53.18 235.111 54.38 234.415 55.508C233.743 56.636 232.747 57.548 231.427 58.244C230.131 58.916 228.595 59.252 226.819 59.252ZM245.09 42.512V53.492C245.09 54.236 245.258 54.776 245.594 55.112C245.954 55.424 246.554 55.58 247.394 55.58H249.914V59H246.674C244.826 59 243.41 58.568 242.426 57.704C241.442 56.84 240.95 55.436 240.95 53.492V42.512H238.61V39.164H240.95V34.232H245.09V39.164H249.914V42.512H245.09ZM271.66 39.164V59H267.556V56.66C266.908 57.476 266.056 58.124 265 58.604C263.968 59.06 262.864 59.288 261.688 59.288C260.128 59.288 258.724 58.964 257.476 58.316C256.252 57.668 255.28 56.708 254.56 55.436C253.864 54.164 253.516 52.628 253.516 50.828V39.164H257.584V50.216C257.584 51.992 258.028 53.36 258.916 54.32C259.804 55.256 261.016 55.724 262.552 55.724C264.088 55.724 265.3 55.256 266.188 54.32C267.1 53.36 267.556 51.992 267.556 50.216V39.164H271.66ZM275.707 48.992C275.707 47 276.115 45.236 276.931 43.7C277.771 42.164 278.899 40.976 280.315 40.136C281.755 39.272 283.351 38.84 285.103 38.84C286.399 38.84 287.671 39.128 288.919 39.704C290.191 40.256 291.199 41 291.943 41.936V32.36H296.083V59H291.943V56.012C291.271 56.972 290.335 57.764 289.135 58.388C287.959 59.012 286.603 59.324 285.067 59.324C283.339 59.324 281.755 58.892 280.315 58.028C278.899 57.14 277.771 55.916 276.931 54.356C276.115 52.772 275.707 50.984 275.707 48.992ZM291.943 49.064C291.943 47.696 291.655 46.508 291.079 45.5C290.527 44.492 289.795 43.724 288.883 43.196C287.971 42.668 286.987 42.404 285.931 42.404C284.875 42.404 283.891 42.668 282.979 43.196C282.067 43.7 281.323 44.456 280.747 45.464C280.195 46.448 279.919 47.624 279.919 48.992C279.919 50.36 280.195 51.56 280.747 52.592C281.323 53.624 282.067 54.416 282.979 54.968C283.915 55.496 284.899 55.76 285.931 55.76C286.987 55.76 287.971 55.496 288.883 54.968C289.795 54.44 290.527 53.672 291.079 52.664C291.655 51.632 291.943 50.432 291.943 49.064ZM319.329 39.164L307.161 68.324H302.913L306.945 58.676L299.133 39.164H303.705L309.285 54.284L315.081 39.164H319.329ZM351.758 33.98V59H347.654V48.056H335.882V59H331.778V33.98H335.882V44.708H347.654V33.98H351.758ZM359.249 36.536C358.505 36.536 357.881 36.284 357.377 35.78C356.873 35.276 356.621 34.652 356.621 33.908C356.621 33.164 356.873 32.54 357.377 32.036C357.881 31.532 358.505 31.28 359.249 31.28C359.969 31.28 360.581 31.532 361.085 32.036C361.589 32.54 361.841 33.164 361.841 33.908C361.841 34.652 361.589 35.276 361.085 35.78C360.581 36.284 359.969 36.536 359.249 36.536ZM361.265 39.164V59H357.161V39.164H361.265ZM374.321 55.328L379.937 39.164H384.293L376.733 59H371.837L364.313 39.164H368.705L374.321 55.328ZM405.575 48.596C405.575 49.34 405.527 50.012 405.431 50.612H390.275C390.395 52.196 390.983 53.468 392.039 54.428C393.095 55.388 394.391 55.868 395.927 55.868C398.135 55.868 399.695 54.944 400.607 53.096H405.035C404.435 54.92 403.343 56.42 401.759 57.596C400.199 58.748 398.255 59.324 395.927 59.324C394.031 59.324 392.327 58.904 390.815 58.064C389.327 57.2 388.151 56 387.287 54.464C386.447 52.904 386.027 51.104 386.027 49.064C386.027 47.024 386.435 45.236 387.251 43.7C388.091 42.14 389.255 40.94 390.743 40.1C392.255 39.26 393.983 38.84 395.927 38.84C397.799 38.84 399.467 39.248 400.931 40.064C402.395 40.88 403.535 42.032 404.351 43.52C405.167 44.984 405.575 46.676 405.575 48.596ZM401.291 47.3C401.267 45.788 400.727 44.576 399.671 43.664C398.615 42.752 397.307 42.296 395.747 42.296C394.331 42.296 393.119 42.752 392.111 43.664C391.103 44.552 390.503 45.764 390.311 47.3H401.291Z" fill="#584F1D"/>
</svg>
