<svg width="529" height="100" viewBox="0 0 529 100" fill="none" xmlns="http://www.w3.org/2000/svg">
<rect y="7" width="523" height="93" rx="46.5" fill="#F2DC5D"/>
<rect x="6" width="523" height="93" rx="46.5" fill="#FFF2AA"/>
<path d="M95.4904 46.148C96.8344 46.388 97.9744 47.096 98.9104 48.272C99.8464 49.448 100.314 50.78 100.314 52.268C100.314 53.54 99.9784 54.692 99.3064 55.724C98.6584 56.732 97.7104 57.536 96.4624 58.136C95.2144 58.712 93.7624 59 92.1064 59H82.0984V33.98H91.6384C93.3424 33.98 94.8064 34.268 96.0304 34.844C97.2544 35.42 98.1784 36.2 98.8024 37.184C99.4264 38.144 99.7384 39.224 99.7384 40.424C99.7384 41.864 99.3544 43.064 98.5864 44.024C97.8184 44.984 96.7864 45.692 95.4904 46.148ZM86.2024 44.492H91.2784C92.6224 44.492 93.6664 44.192 94.4104 43.592C95.1784 42.968 95.5624 42.08 95.5624 40.928C95.5624 39.8 95.1784 38.924 94.4104 38.3C93.6664 37.652 92.6224 37.328 91.2784 37.328H86.2024V44.492ZM91.7464 55.652C93.1384 55.652 94.2304 55.316 95.0224 54.644C95.8144 53.972 96.2104 53.036 96.2104 51.836C96.2104 50.612 95.7904 49.64 94.9504 48.92C94.1104 48.2 92.9944 47.84 91.6024 47.84H86.2024V55.652H91.7464ZM122.738 39.164V59H118.634V56.66C117.986 57.476 117.134 58.124 116.078 58.604C115.046 59.06 113.942 59.288 112.766 59.288C111.206 59.288 109.802 58.964 108.554 58.316C107.33 57.668 106.358 56.708 105.638 55.436C104.942 54.164 104.594 52.628 104.594 50.828V39.164H108.662V50.216C108.662 51.992 109.106 53.36 109.994 54.32C110.882 55.256 112.094 55.724 113.63 55.724C115.166 55.724 116.378 55.256 117.266 54.32C118.178 53.36 118.634 51.992 118.634 50.216V39.164H122.738ZM130.241 36.536C129.497 36.536 128.873 36.284 128.369 35.78C127.865 35.276 127.613 34.652 127.613 33.908C127.613 33.164 127.865 32.54 128.369 32.036C128.873 31.532 129.497 31.28 130.241 31.28C130.961 31.28 131.573 31.532 132.077 32.036C132.581 32.54 132.833 33.164 132.833 33.908C132.833 34.652 132.581 35.276 132.077 35.78C131.573 36.284 130.961 36.536 130.241 36.536ZM132.257 39.164V59H128.153V39.164H132.257ZM141.749 32.36V59H137.645V32.36H141.749ZM145.77 48.992C145.77 47 146.178 45.236 146.994 43.7C147.834 42.164 148.962 40.976 150.378 40.136C151.818 39.272 153.414 38.84 155.166 38.84C156.462 38.84 157.734 39.128 158.982 39.704C160.254 40.256 161.262 41 162.006 41.936V32.36H166.146V59H162.006V56.012C161.334 56.972 160.398 57.764 159.198 58.388C158.022 59.012 156.666 59.324 155.13 59.324C153.402 59.324 151.818 58.892 150.378 58.028C148.962 57.14 147.834 55.916 146.994 54.356C146.178 52.772 145.77 50.984 145.77 48.992ZM162.006 49.064C162.006 47.696 161.718 46.508 161.142 45.5C160.59 44.492 159.858 43.724 158.946 43.196C158.034 42.668 157.05 42.404 155.994 42.404C154.938 42.404 153.954 42.668 153.042 43.196C152.13 43.7 151.386 44.456 150.81 45.464C150.258 46.448 149.982 47.624 149.982 48.992C149.982 50.36 150.258 51.56 150.81 52.592C151.386 53.624 152.13 54.416 153.042 54.968C153.978 55.496 154.962 55.76 155.994 55.76C157.05 55.76 158.034 55.496 158.946 54.968C159.858 54.44 160.59 53.672 161.142 52.664C161.718 51.632 162.006 50.432 162.006 49.064ZM195.612 33.98V37.328H184.992V44.708H193.272V48.056H184.992V59H180.888V33.98H195.612ZM203.519 32.36V59H199.415V32.36H203.519ZM207.539 48.992C207.539 47 207.947 45.236 208.763 43.7C209.603 42.164 210.731 40.976 212.147 40.136C213.587 39.272 215.171 38.84 216.899 38.84C218.459 38.84 219.815 39.152 220.967 39.776C222.143 40.376 223.079 41.132 223.775 42.044V39.164H227.915V59H223.775V56.048C223.079 56.984 222.131 57.764 220.931 58.388C219.731 59.012 218.363 59.324 216.827 59.324C215.123 59.324 213.563 58.892 212.147 58.028C210.731 57.14 209.603 55.916 208.763 54.356C207.947 52.772 207.539 50.984 207.539 48.992ZM223.775 49.064C223.775 47.696 223.487 46.508 222.911 45.5C222.359 44.492 221.627 43.724 220.715 43.196C219.803 42.668 218.819 42.404 217.763 42.404C216.707 42.404 215.723 42.668 214.811 43.196C213.899 43.7 213.155 44.456 212.579 45.464C212.027 46.448 211.751 47.624 211.751 48.992C211.751 50.36 212.027 51.56 212.579 52.592C213.155 53.624 213.899 54.416 214.811 54.968C215.747 55.496 216.731 55.76 217.763 55.76C218.819 55.76 219.803 55.496 220.715 54.968C221.627 54.44 222.359 53.672 222.911 52.664C223.487 51.632 223.775 50.432 223.775 49.064ZM240.505 59.324C238.945 59.324 237.541 59.048 236.293 58.496C235.069 57.92 234.097 57.152 233.377 56.192C232.657 55.208 232.273 54.116 232.225 52.916H236.473C236.545 53.756 236.941 54.464 237.661 55.04C238.405 55.592 239.329 55.868 240.433 55.868C241.585 55.868 242.473 55.652 243.097 55.22C243.745 54.764 244.069 54.188 244.069 53.492C244.069 52.748 243.709 52.196 242.989 51.836C242.293 51.476 241.177 51.08 239.641 50.648C238.153 50.24 236.941 49.844 236.005 49.46C235.069 49.076 234.253 48.488 233.557 47.696C232.885 46.904 232.549 45.86 232.549 44.564C232.549 43.508 232.861 42.548 233.485 41.684C234.109 40.796 234.997 40.1 236.149 39.596C237.325 39.092 238.669 38.84 240.181 38.84C242.437 38.84 244.249 39.416 245.617 40.568C247.009 41.696 247.753 43.244 247.849 45.212H243.745C243.673 44.324 243.313 43.616 242.665 43.088C242.017 42.56 241.141 42.296 240.037 42.296C238.957 42.296 238.129 42.5 237.553 42.908C236.977 43.316 236.689 43.856 236.689 44.528C236.689 45.056 236.881 45.5 237.265 45.86C237.649 46.22 238.117 46.508 238.669 46.724C239.221 46.916 240.037 47.168 241.117 47.48C242.557 47.864 243.733 48.26 244.645 48.668C245.581 49.052 246.385 49.628 247.057 50.396C247.729 51.164 248.077 52.184 248.101 53.456C248.101 54.584 247.789 55.592 247.165 56.48C246.541 57.368 245.653 58.064 244.501 58.568C243.373 59.072 242.041 59.324 240.505 59.324ZM262.796 38.84C264.308 38.84 265.652 39.164 266.828 39.812C268.028 40.46 268.964 41.42 269.636 42.692C270.332 43.964 270.68 45.5 270.68 47.3V59H266.612V47.912C266.612 46.136 266.168 44.78 265.28 43.844C264.392 42.884 263.18 42.404 261.644 42.404C260.108 42.404 258.884 42.884 257.972 43.844C257.084 44.78 256.64 46.136 256.64 47.912V59H252.536V32.36H256.64V41.468C257.336 40.628 258.212 39.98 259.268 39.524C260.348 39.068 261.524 38.84 262.796 38.84ZM274.547 49.064C274.547 47.024 274.955 45.236 275.771 43.7C276.611 42.14 277.763 40.94 279.227 40.1C280.691 39.26 282.371 38.84 284.267 38.84C286.667 38.84 288.647 39.416 290.207 40.568C291.791 41.696 292.859 43.316 293.411 45.428H288.983C288.623 44.444 288.047 43.676 287.255 43.124C286.463 42.572 285.467 42.296 284.267 42.296C282.587 42.296 281.243 42.896 280.235 44.096C279.251 45.272 278.759 46.928 278.759 49.064C278.759 51.2 279.251 52.868 280.235 54.068C281.243 55.268 282.587 55.868 284.267 55.868C286.643 55.868 288.215 54.824 288.983 52.736H293.411C292.835 54.752 291.755 56.36 290.171 57.56C288.587 58.736 286.619 59.324 284.267 59.324C282.371 59.324 280.691 58.904 279.227 58.064C277.763 57.2 276.611 56 275.771 54.464C274.955 52.904 274.547 51.104 274.547 49.064ZM296.133 48.992C296.133 47 296.541 45.236 297.357 43.7C298.197 42.164 299.325 40.976 300.741 40.136C302.181 39.272 303.765 38.84 305.493 38.84C307.053 38.84 308.409 39.152 309.561 39.776C310.737 40.376 311.673 41.132 312.369 42.044V39.164H316.509V59H312.369V56.048C311.673 56.984 310.725 57.764 309.525 58.388C308.325 59.012 306.957 59.324 305.421 59.324C303.717 59.324 302.157 58.892 300.741 58.028C299.325 57.14 298.197 55.916 297.357 54.356C296.541 52.772 296.133 50.984 296.133 48.992ZM312.369 49.064C312.369 47.696 312.081 46.508 311.505 45.5C310.953 44.492 310.221 43.724 309.309 43.196C308.397 42.668 307.413 42.404 306.357 42.404C305.301 42.404 304.317 42.668 303.405 43.196C302.493 43.7 301.749 44.456 301.173 45.464C300.621 46.448 300.345 47.624 300.345 48.992C300.345 50.36 300.621 51.56 301.173 52.592C301.749 53.624 302.493 54.416 303.405 54.968C304.341 55.496 305.325 55.76 306.357 55.76C307.413 55.76 308.397 55.496 309.309 54.968C310.221 54.44 310.953 53.672 311.505 52.664C312.081 51.632 312.369 50.432 312.369 49.064ZM326.003 42.044C326.603 41.036 327.395 40.256 328.379 39.704C329.387 39.128 330.575 38.84 331.943 38.84V43.088H330.899C329.291 43.088 328.067 43.496 327.227 44.312C326.411 45.128 326.003 46.544 326.003 48.56V59H321.899V39.164H326.003V42.044ZM334.348 48.992C334.348 47 334.756 45.236 335.572 43.7C336.412 42.164 337.54 40.976 338.956 40.136C340.396 39.272 341.992 38.84 343.744 38.84C345.04 38.84 346.312 39.128 347.56 39.704C348.832 40.256 349.84 41 350.584 41.936V32.36H354.724V59H350.584V56.012C349.912 56.972 348.976 57.764 347.776 58.388C346.6 59.012 345.244 59.324 343.708 59.324C341.98 59.324 340.396 58.892 338.956 58.028C337.54 57.14 336.412 55.916 335.572 54.356C334.756 52.772 334.348 50.984 334.348 48.992ZM350.584 49.064C350.584 47.696 350.296 46.508 349.72 45.5C349.168 44.492 348.436 43.724 347.524 43.196C346.612 42.668 345.628 42.404 344.572 42.404C343.516 42.404 342.532 42.668 341.62 43.196C340.708 43.7 339.964 44.456 339.388 45.464C338.836 46.448 338.56 47.624 338.56 48.992C338.56 50.36 338.836 51.56 339.388 52.592C339.964 53.624 340.708 54.416 341.62 54.968C342.556 55.496 343.54 55.76 344.572 55.76C345.628 55.76 346.612 55.496 347.524 54.968C348.436 54.44 349.168 53.672 349.72 52.664C350.296 51.632 350.584 50.432 350.584 49.064ZM389.446 33.98V59H385.342V48.056H373.57V59H369.466V33.98H373.57V44.708H385.342V33.98H389.446ZM396.936 36.536C396.192 36.536 395.568 36.284 395.064 35.78C394.56 35.276 394.308 34.652 394.308 33.908C394.308 33.164 394.56 32.54 395.064 32.036C395.568 31.532 396.192 31.28 396.936 31.28C397.656 31.28 398.268 31.532 398.772 32.036C399.276 32.54 399.528 33.164 399.528 33.908C399.528 34.652 399.276 35.276 398.772 35.78C398.268 36.284 397.656 36.536 396.936 36.536ZM398.952 39.164V59H394.848V39.164H398.952ZM412.009 55.328L417.625 39.164H421.981L414.421 59H409.525L402.001 39.164H406.393L412.009 55.328ZM443.263 48.596C443.263 49.34 443.215 50.012 443.119 50.612H427.963C428.083 52.196 428.671 53.468 429.727 54.428C430.783 55.388 432.079 55.868 433.615 55.868C435.823 55.868 437.383 54.944 438.295 53.096H442.723C442.123 54.92 441.031 56.42 439.447 57.596C437.887 58.748 435.943 59.324 433.615 59.324C431.719 59.324 430.015 58.904 428.503 58.064C427.015 57.2 425.839 56 424.975 54.464C424.135 52.904 423.715 51.104 423.715 49.064C423.715 47.024 424.123 45.236 424.939 43.7C425.779 42.14 426.943 40.94 428.431 40.1C429.943 39.26 431.671 38.84 433.615 38.84C435.487 38.84 437.155 39.248 438.619 40.064C440.083 40.88 441.223 42.032 442.039 43.52C442.855 44.984 443.263 46.676 443.263 48.596ZM438.979 47.3C438.955 45.788 438.415 44.576 437.359 43.664C436.303 42.752 434.995 42.296 433.435 42.296C432.019 42.296 430.807 42.752 429.799 43.664C428.791 44.552 428.191 45.764 427.999 47.3H438.979Z" fill="#584F1D"/>
</svg>
