<svg width="928" height="655" viewBox="0 0 928 655" fill="none" xmlns="http://www.w3.org/2000/svg">
<rect x="103.385" y="516.369" width="205.136" height="90.6302" rx="45.3151" transform="rotate(-21.5159 103.385 516.369)" fill="#F2DC5D"/>
<ellipse cx="313.925" cy="461.029" rx="7.72016" ry="7.83224" transform="rotate(-21.5159 313.925 461.029)" fill="black"/>
<ellipse cx="281.092" cy="473.973" rx="7.72016" ry="7.83224" transform="rotate(-21.5159 281.092 473.973)" fill="black"/>
<rect x="218.3" y="471.065" width="27.572" height="90.6302" transform="rotate(-21.5159 218.3 471.065)" fill="black"/>
<rect x="176.233" y="487.65" width="24.2634" height="90.6302" transform="rotate(-21.5159 176.233 487.65)" fill="black"/>
<rect x="146.479" y="499.38" width="12.1317" height="90.6302" transform="rotate(-21.5159 146.479 499.38)" fill="black"/>
<rect x="99.7417" y="562.095" width="26.4691" height="8.95113" transform="rotate(-21.5159 99.7417 562.095)" fill="black"/>
<rect width="121.447" height="61.2444" rx="30.6222" transform="matrix(0.998515 0.0544814 -0.043674 0.999046 125.39 453.093)" fill="white"/>
<path d="M319.296 475.54C320.163 477.739 320.48 480.13 320.229 482.576C319.978 485.023 319.164 487.476 317.834 489.798C316.503 492.119 314.682 494.262 312.474 496.105C310.266 497.948 307.715 499.454 304.966 500.537C302.217 501.621 299.325 502.261 296.453 502.421C293.582 502.58 290.788 502.257 288.231 501.468C285.674 500.679 283.405 499.441 281.552 497.824C279.699 496.207 278.299 494.243 277.432 492.044L298.364 483.792L319.296 475.54Z" fill="black"/>
<rect x="37.3853" y="343.369" width="205.136" height="90.6302" rx="45.3151" transform="rotate(-21.5159 37.3853 343.369)" fill="#F2DC5D"/>
<ellipse cx="247.925" cy="288.029" rx="7.72016" ry="7.83224" transform="rotate(-21.5159 247.925 288.029)" fill="black"/>
<ellipse cx="215.092" cy="300.973" rx="7.72016" ry="7.83224" transform="rotate(-21.5159 215.092 300.973)" fill="black"/>
<rect x="152.3" y="298.065" width="27.572" height="90.6302" transform="rotate(-21.5159 152.3 298.065)" fill="black"/>
<rect x="110.233" y="314.65" width="24.2634" height="90.6302" transform="rotate(-21.5159 110.233 314.65)" fill="black"/>
<rect x="80.4785" y="326.38" width="12.1317" height="90.6302" transform="rotate(-21.5159 80.4785 326.38)" fill="black"/>
<rect x="33.7417" y="389.095" width="26.4691" height="8.95113" transform="rotate(-21.5159 33.7417 389.095)" fill="black"/>
<rect width="121.447" height="61.2444" rx="30.6222" transform="matrix(0.998515 0.0544814 -0.043674 0.999046 59.3896 280.093)" fill="white"/>
<path d="M253.296 302.54C254.163 304.739 254.48 307.13 254.229 309.576C253.978 312.023 253.164 314.476 251.834 316.798C250.503 319.119 248.682 321.262 246.474 323.105C244.266 324.948 241.715 326.454 238.966 327.537C236.217 328.621 233.325 329.261 230.453 329.421C227.582 329.58 224.788 329.257 222.231 328.468C219.674 327.679 217.405 326.441 215.552 324.824C213.699 323.207 212.299 321.243 211.432 319.044L232.364 310.792L253.296 302.54Z" fill="black"/>
<rect width="205.136" height="90.6302" rx="45.3151" transform="matrix(-0.930315 -0.36676 -0.36676 0.930315 905.523 319.369)" fill="#F2DC5D"/>
<ellipse cx="7.72016" cy="7.83224" rx="7.72016" ry="7.83224" transform="matrix(-0.930315 -0.36676 -0.36676 0.930315 705.038 259.574)" fill="black"/>
<ellipse cx="7.72016" cy="7.83224" rx="7.72016" ry="7.83224" transform="matrix(-0.930315 -0.36676 -0.36676 0.930315 737.871 272.518)" fill="black"/>
<rect width="27.572" height="90.6302" transform="matrix(-0.930315 -0.36676 -0.36676 0.930315 790.608 274.065)" fill="black"/>
<rect width="24.2634" height="90.6302" transform="matrix(-0.930315 -0.36676 -0.36676 0.930315 832.675 290.65)" fill="black"/>
<rect width="12.1317" height="90.6302" transform="matrix(-0.930315 -0.36676 -0.36676 0.930315 862.43 302.38)" fill="black"/>
<rect width="26.4691" height="8.95113" transform="matrix(-0.930315 -0.36676 -0.36676 0.930315 909.167 365.095)" fill="black"/>
<rect width="121.447" height="61.2444" rx="30.6222" transform="matrix(-0.998515 0.0544814 0.043674 0.999046 883.519 256.093)" fill="white"/>
<path d="M689.612 278.54C688.745 280.739 688.428 283.13 688.679 285.576C688.93 288.023 689.744 290.476 691.075 292.798C692.406 295.119 694.227 297.262 696.435 299.105C698.643 300.948 701.194 302.454 703.943 303.537C706.692 304.621 709.584 305.261 712.456 305.421C715.327 305.58 718.121 305.257 720.677 304.468C723.234 303.679 725.504 302.441 727.357 300.824C729.21 299.207 730.609 297.243 731.476 295.044L710.544 286.792L689.612 278.54Z" fill="black"/>
<rect width="205.136" height="90.6302" rx="45.3151" transform="matrix(-0.918363 -0.395739 -0.395739 0.918363 862.473 499.249)" fill="#F2DC5D"/>
<ellipse cx="7.72016" cy="7.83224" rx="7.72016" ry="7.83224" transform="matrix(-0.918363 -0.395739 -0.395739 0.918363 663.961 433.201)" fill="black"/>
<ellipse cx="7.72016" cy="7.83224" rx="7.72016" ry="7.83224" transform="matrix(-0.918363 -0.395739 -0.395739 0.918363 696.372 447.167)" fill="black"/>
<rect width="27.572" height="90.6302" transform="matrix(-0.918363 -0.395739 -0.395739 0.918363 749.035 450.367)" fill="black"/>
<rect width="24.2634" height="90.6302" transform="matrix(-0.918363 -0.395739 -0.395739 0.918363 790.561 468.261)" fill="black"/>
<rect width="12.1317" height="90.6302" transform="matrix(-0.918363 -0.395739 -0.395739 0.918363 819.934 480.918)" fill="black"/>
<rect width="26.4691" height="8.95113" transform="matrix(-0.918363 -0.395739 -0.395739 0.918363 864.682 545.068)" fill="black"/>
<rect width="121.447" height="61.2444" rx="30.6222" transform="matrix(-0.999732 0.0231577 0.012339 0.999924 842.463 435.315)" fill="white"/>
<path d="M647.948 451.673C647.013 453.844 646.621 456.224 646.795 458.677C646.969 461.13 647.706 463.608 648.963 465.97C650.221 468.332 651.974 470.531 654.123 472.442C656.272 474.353 658.775 475.939 661.488 477.108C664.202 478.277 667.073 479.007 669.938 479.257C672.803 479.507 675.605 479.271 678.186 478.562C680.766 477.854 683.073 476.688 684.976 475.13C686.878 473.572 688.339 471.652 689.275 469.481L668.611 460.577L647.948 451.673Z" fill="black"/>
<rect width="205.136" height="90.6302" rx="45.3151" transform="matrix(-0.918363 -0.395739 -0.395739 0.918363 649.473 563.249)" fill="#F2DC5D"/>
<ellipse cx="7.72016" cy="7.83224" rx="7.72016" ry="7.83224" transform="matrix(-0.918363 -0.395739 -0.395739 0.918363 450.961 497.201)" fill="black"/>
<ellipse cx="7.72016" cy="7.83224" rx="7.72016" ry="7.83224" transform="matrix(-0.918363 -0.395739 -0.395739 0.918363 483.372 511.167)" fill="black"/>
<rect width="27.572" height="90.6302" transform="matrix(-0.918363 -0.395739 -0.395739 0.918363 536.035 514.367)" fill="black"/>
<rect width="24.2634" height="90.6302" transform="matrix(-0.918363 -0.395739 -0.395739 0.918363 577.561 532.261)" fill="black"/>
<rect width="12.1317" height="90.6302" transform="matrix(-0.918363 -0.395739 -0.395739 0.918363 606.934 544.918)" fill="black"/>
<rect width="26.4691" height="8.95113" transform="matrix(-0.918363 -0.395739 -0.395739 0.918363 651.682 609.068)" fill="black"/>
<rect width="121.447" height="61.2444" rx="30.6222" transform="matrix(-0.999732 0.0231577 0.012339 0.999924 629.463 499.315)" fill="white"/>
<path d="M434.948 515.673C434.013 517.844 433.621 520.224 433.795 522.677C433.969 525.13 434.706 527.608 435.963 529.97C437.221 532.332 438.974 534.531 441.123 536.442C443.272 538.353 445.775 539.939 448.488 541.108C451.202 542.277 454.073 543.007 456.938 543.257C459.803 543.507 462.605 543.271 465.186 542.562C467.766 541.854 470.073 540.688 471.976 539.13C473.878 537.572 475.339 535.652 476.275 533.481L455.611 524.577L434.948 515.673Z" fill="black"/>
<rect x="338.692" y="81.8698" width="9" height="27" transform="rotate(-16.7507 338.692 81.8698)" fill="#918BFF"/>
<rect x="379.392" y="78.1248" width="9" height="27" transform="rotate(-27.2778 379.392 78.1248)" fill="#918BFF"/>
<rect x="584.364" y="3.69971" width="9" height="27" transform="rotate(32.5559 584.364 3.69971)" fill="#918BFF"/>
<rect x="291" y="5.39026" width="9" height="27" transform="rotate(-20.239 291 5.39026)" fill="#918BFF"/>
<rect x="631.217" y="3.46106" width="9" height="27" transform="rotate(27.8395 631.217 3.46106)" fill="#FF7FF2"/>
<rect x="451.943" y="103.411" width="9" height="27" transform="rotate(-31.8696 451.943 103.411)" fill="#FF7FF2"/>
<rect x="568.392" y="81.0297" width="9" height="27" transform="rotate(-19.672 568.392 81.0297)" fill="#FF7FF2"/>
<rect x="308.525" y="54.068" width="10" height="28" transform="rotate(-16.964 308.525 54.068)" fill="#FF7FF2"/>
<rect x="359.883" y="39.3043" width="9" height="27" transform="rotate(22.4274 359.883 39.3043)" fill="#FF7FF2"/>
<rect x="433.065" y="83.9237" width="11" height="27" transform="rotate(22.8471 433.065 83.9237)" fill="#AFEFFF"/>
<rect x="509.767" y="89.0801" width="11" height="27" transform="rotate(-27.5781 509.767 89.0801)" fill="#AFEFFF"/>
<rect x="588.481" y="57.8528" width="11" height="27" transform="rotate(-36.193 588.481 57.8528)" fill="#AFEFFF"/>
<rect x="471.496" y="2.1571" width="11" height="27" transform="rotate(32.4567 471.496 2.1571)" fill="#AFEFFF"/>
<rect x="492.392" y="30.973" width="11" height="27" transform="rotate(-26.8781 492.392 30.973)" fill="#AFEFFF"/>
<rect x="387.392" y="47.0051" width="11" height="27" transform="rotate(-39.5561 387.392 47.0051)" fill="#AFEFFF"/>
<rect x="328.941" y="16.0538" width="11" height="27" transform="rotate(14.4738 328.941 16.0538)" fill="#AFEFFF"/>
<rect x="364.852" y="104.27" width="9" height="27" transform="rotate(18.2717 364.852 104.27)" fill="#FF8585"/>
<rect x="405.617" y="104.288" width="9" height="27" transform="rotate(21.3531 405.617 104.288)" fill="#FF8585"/>
<rect x="548.22" y="99.2856" width="9" height="27" transform="rotate(15.7279 548.22 99.2856)" fill="#FF8585"/>
<rect x="385.805" y="7" width="9" height="27" transform="rotate(22.6847 385.805 7)" fill="#FF8585"/>
<rect x="520.073" y="7.25623" width="9" height="27" transform="rotate(-31.0548 520.073 7.25623)" fill="#FF8585"/>
<rect x="550.188" y="43.3289" width="9" height="27" transform="rotate(23.6615 550.188 43.3289)" fill="#FF8585"/>
<rect x="482.345" y="57" width="9" height="27" transform="rotate(26.2764 482.345 57)" fill="#FF8585"/>
<rect x="407.933" y="8.78784" width="9" height="27" transform="rotate(-38.7484 407.933 8.78784)" fill="#C8FF70"/>
<rect x="444.76" y="38.5618" width="9" height="27" transform="rotate(30.0612 444.76 38.5618)" fill="#C8FF70"/>
<rect x="492.88" y="104.27" width="9" height="27" transform="rotate(18.3871 492.88 104.27)" fill="#C8FF70"/>
<rect x="343.392" y="3.02747" width="9" height="27" transform="rotate(-19.657 343.392 3.02747)" fill="#C8FF70"/>
<rect x="461" y="62" width="9" height="27" fill="#C8FF70"/>
<rect x="338.692" y="81.8698" width="9" height="27" transform="rotate(-16.7507 338.692 81.8698)" fill="#918BFF"/>
<rect x="379.392" y="78.1248" width="9" height="27" transform="rotate(-27.2778 379.392 78.1248)" fill="#918BFF"/>
<rect x="584.364" y="3.69971" width="9" height="27" transform="rotate(32.5559 584.364 3.69971)" fill="#918BFF"/>
<rect x="291" y="5.39026" width="9" height="27" transform="rotate(-20.239 291 5.39026)" fill="#918BFF"/>
<rect x="631.217" y="3.46106" width="9" height="27" transform="rotate(27.8395 631.217 3.46106)" fill="#FF7FF2"/>
<rect x="451.943" y="103.411" width="9" height="27" transform="rotate(-31.8696 451.943 103.411)" fill="#FF7FF2"/>
<rect x="568.392" y="81.0297" width="9" height="27" transform="rotate(-19.672 568.392 81.0297)" fill="#FF7FF2"/>
<rect x="308.525" y="54.068" width="10" height="28" transform="rotate(-16.964 308.525 54.068)" fill="#FF7FF2"/>
<rect x="359.883" y="39.3043" width="9" height="27" transform="rotate(22.4274 359.883 39.3043)" fill="#FF7FF2"/>
<rect x="433.065" y="83.9237" width="11" height="27" transform="rotate(22.8471 433.065 83.9237)" fill="#AFEFFF"/>
<rect x="509.767" y="89.0801" width="11" height="27" transform="rotate(-27.5781 509.767 89.0801)" fill="#AFEFFF"/>
<rect x="588.481" y="57.8528" width="11" height="27" transform="rotate(-36.193 588.481 57.8528)" fill="#AFEFFF"/>
<rect x="471.496" y="2.1571" width="11" height="27" transform="rotate(32.4567 471.496 2.1571)" fill="#AFEFFF"/>
<rect x="492.392" y="30.973" width="11" height="27" transform="rotate(-26.8781 492.392 30.973)" fill="#AFEFFF"/>
<rect x="387.392" y="47.0051" width="11" height="27" transform="rotate(-39.5561 387.392 47.0051)" fill="#AFEFFF"/>
<rect x="328.941" y="16.0538" width="11" height="27" transform="rotate(14.4738 328.941 16.0538)" fill="#AFEFFF"/>
<rect x="364.852" y="104.27" width="9" height="27" transform="rotate(18.2717 364.852 104.27)" fill="#FF8585"/>
<rect x="405.617" y="104.288" width="9" height="27" transform="rotate(21.3531 405.617 104.288)" fill="#FF8585"/>
<rect x="548.22" y="99.2856" width="9" height="27" transform="rotate(15.7279 548.22 99.2856)" fill="#FF8585"/>
<rect x="385.805" y="7" width="9" height="27" transform="rotate(22.6847 385.805 7)" fill="#FF8585"/>
<rect x="520.073" y="7.25623" width="9" height="27" transform="rotate(-31.0548 520.073 7.25623)" fill="#FF8585"/>
<rect x="550.188" y="43.3289" width="9" height="27" transform="rotate(23.6615 550.188 43.3289)" fill="#FF8585"/>
<rect x="482.345" y="57" width="9" height="27" transform="rotate(26.2764 482.345 57)" fill="#FF8585"/>
<rect x="407.933" y="8.78784" width="9" height="27" transform="rotate(-38.7484 407.933 8.78784)" fill="#C8FF70"/>
<rect x="444.76" y="38.5618" width="9" height="27" transform="rotate(30.0612 444.76 38.5618)" fill="#C8FF70"/>
<rect x="492.88" y="104.27" width="9" height="27" transform="rotate(18.3871 492.88 104.27)" fill="#C8FF70"/>
<rect x="343.392" y="3.02747" width="9" height="27" transform="rotate(-19.657 343.392 3.02747)" fill="#C8FF70"/>
<rect x="461" y="62" width="9" height="27" fill="#C8FF70"/>
<rect x="379.392" y="403" width="168" height="25" fill="#FFF2AA"/>
<rect x="446.392" y="333" width="33" height="86" fill="#FFF2AA"/>
<ellipse cx="462.892" cy="294" rx="99.5" ry="95" fill="#FFF2AA"/>
<rect x="363.392" y="163" width="198" height="132" fill="#FFF2AA"/>
<rect width="239" height="23" rx="4" transform="matrix(1 0 0 -1 342.392 163)" fill="#FFF2AA"/>
<mask id="path-107-inside-1_60_259" fill="white">
<path d="M544.392 190H622.392C625.154 190 627.392 192.239 627.392 195V265C627.392 292.614 605.006 315 577.392 315H544.392V190Z"/>
</mask>
<path d="M544.392 190H622.392C625.154 190 627.392 192.239 627.392 195V265C627.392 292.614 605.006 315 577.392 315H544.392V190Z" stroke="#FFF2AA" stroke-width="40" mask="url(#path-107-inside-1_60_259)"/>
<mask id="path-108-inside-2_60_259" fill="white">
<path d="M383.392 190H305.392C302.631 190 300.392 192.239 300.392 195V265C300.392 292.614 322.778 315 350.392 315H383.392V190Z"/>
</mask>
<path d="M383.392 190H305.392C302.631 190 300.392 192.239 300.392 195V265C300.392 292.614 322.778 315 350.392 315H383.392V190Z" stroke="#FFF2AA" stroke-width="40" mask="url(#path-108-inside-2_60_259)"/>
</svg>
