<svg width="214" height="277" viewBox="0 0 214 277" fill="none" xmlns="http://www.w3.org/2000/svg">
<rect width="214" height="277" rx="19" fill="#FFEFAD"/>
<rect x="22" y="52" width="171" height="25" fill="white"/>
<path d="M31.384 34.88V36.368H28.424V46H26.6V36.368H23.624V34.88H31.384ZM34.1593 36.016C33.8286 36.016 33.5513 35.904 33.3273 35.68C33.1033 35.456 32.9913 35.1787 32.9913 34.848C32.9913 34.5173 33.1033 34.24 33.3273 34.016C33.5513 33.792 33.8286 33.68 34.1593 33.68C34.4793 33.68 34.7513 33.792 34.9753 34.016C35.1993 34.24 35.3113 34.5173 35.3113 34.848C35.3113 35.1787 35.1993 35.456 34.9753 35.68C34.7513 35.904 34.4793 36.016 34.1593 36.016ZM35.0553 37.184V46H33.2313V37.184H35.0553ZM39.578 38.672V43.552C39.578 43.8827 39.6527 44.1227 39.802 44.272C39.962 44.4107 40.2287 44.48 40.602 44.48H41.722V46H40.282C39.4607 46 38.8313 45.808 38.394 45.424C37.9567 45.04 37.738 44.416 37.738 43.552V38.672H36.698V37.184H37.738V34.992H39.578V37.184H41.722V38.672H39.578ZM45.2271 34.16V46H43.4031V34.16H45.2271ZM55.7019 41.376C55.7019 41.7067 55.6805 42.0053 55.6379 42.272H48.9019C48.9552 42.976 49.2165 43.5413 49.6859 43.968C50.1552 44.3947 50.7312 44.608 51.4139 44.608C52.3952 44.608 53.0885 44.1973 53.4939 43.376H55.4619C55.1952 44.1867 54.7099 44.8533 54.0059 45.376C53.3125 45.888 52.4485 46.144 51.4139 46.144C50.5712 46.144 49.8139 45.9573 49.1419 45.584C48.4805 45.2 47.9579 44.6667 47.5739 43.984C47.2005 43.2907 47.0139 42.4907 47.0139 41.584C47.0139 40.6773 47.1952 39.8827 47.5579 39.2C47.9312 38.5067 48.4485 37.9733 49.1099 37.6C49.7819 37.2267 50.5499 37.04 51.4139 37.04C52.2459 37.04 52.9872 37.2213 53.6379 37.584C54.2885 37.9467 54.7952 38.4587 55.1579 39.12C55.5205 39.7707 55.7019 40.5227 55.7019 41.376ZM53.7979 40.8C53.7872 40.128 53.5472 39.5893 53.0779 39.184C52.6085 38.7787 52.0272 38.576 51.3339 38.576C50.7045 38.576 50.1659 38.7787 49.7179 39.184C49.2699 39.5787 49.0032 40.1173 48.9179 40.8H53.7979Z" fill="black"/>
<rect x="167" y="93" width="26" height="25" fill="white"/>
<rect x="167" y="125" width="26" height="25" fill="white"/>
<rect x="21" y="181" width="172" height="36" fill="white"/>
<rect x="21" y="228" width="172" height="22" fill="black"/>
<path d="M25.008 100.88V107.968C25.008 108.811 25.2267 109.445 25.664 109.872C26.112 110.299 26.7307 110.512 27.52 110.512C28.32 110.512 28.9387 110.299 29.376 109.872C29.824 109.445 30.048 108.811 30.048 107.968V100.88H31.872V107.936C31.872 108.843 31.6747 109.611 31.28 110.24C30.8853 110.869 30.3573 111.339 29.696 111.648C29.0347 111.957 28.304 112.112 27.504 112.112C26.704 112.112 25.9733 111.957 25.312 111.648C24.6613 111.339 24.144 110.869 23.76 110.24C23.376 109.611 23.184 108.843 23.184 107.936V100.88H25.008ZM37.4469 112.144C36.7535 112.144 36.1295 112.021 35.5749 111.776C35.0309 111.52 34.5989 111.179 34.2789 110.752C33.9589 110.315 33.7882 109.829 33.7669 109.296H35.6549C35.6869 109.669 35.8629 109.984 36.1829 110.24C36.5135 110.485 36.9242 110.608 37.4149 110.608C37.9269 110.608 38.3215 110.512 38.5989 110.32C38.8869 110.117 39.0309 109.861 39.0309 109.552C39.0309 109.221 38.8709 108.976 38.5509 108.816C38.2415 108.656 37.7455 108.48 37.0629 108.288C36.4015 108.107 35.8629 107.931 35.4469 107.76C35.0309 107.589 34.6682 107.328 34.3589 106.976C34.0602 106.624 33.9109 106.16 33.9109 105.584C33.9109 105.115 34.0495 104.688 34.3269 104.304C34.6042 103.909 34.9989 103.6 35.5109 103.376C36.0335 103.152 36.6309 103.04 37.3029 103.04C38.3055 103.04 39.1109 103.296 39.7189 103.808C40.3375 104.309 40.6682 104.997 40.7109 105.872H38.8869C38.8549 105.477 38.6949 105.163 38.4069 104.928C38.1189 104.693 37.7295 104.576 37.2389 104.576C36.7589 104.576 36.3909 104.667 36.1349 104.848C35.8789 105.029 35.7509 105.269 35.7509 105.568C35.7509 105.803 35.8362 106 36.0069 106.16C36.1775 106.32 36.3855 106.448 36.6309 106.544C36.8762 106.629 37.2389 106.741 37.7189 106.88C38.3589 107.051 38.8815 107.227 39.2869 107.408C39.7029 107.579 40.0602 107.835 40.3589 108.176C40.6575 108.517 40.8122 108.971 40.8229 109.536C40.8229 110.037 40.6842 110.485 40.4069 110.88C40.1295 111.275 39.7349 111.584 39.2229 111.808C38.7215 112.032 38.1295 112.144 37.4469 112.144ZM50.8738 107.376C50.8738 107.707 50.8524 108.005 50.8098 108.272H44.0738C44.1271 108.976 44.3884 109.541 44.8578 109.968C45.3271 110.395 45.9031 110.608 46.5858 110.608C47.5671 110.608 48.2604 110.197 48.6658 109.376H50.6337C50.3671 110.187 49.8818 110.853 49.1778 111.376C48.4844 111.888 47.6204 112.144 46.5858 112.144C45.7431 112.144 44.9858 111.957 44.3138 111.584C43.6524 111.2 43.1298 110.667 42.7458 109.984C42.3724 109.291 42.1858 108.491 42.1858 107.584C42.1858 106.677 42.3671 105.883 42.7298 105.2C43.1031 104.507 43.6204 103.973 44.2818 103.6C44.9538 103.227 45.7218 103.04 46.5858 103.04C47.4178 103.04 48.1591 103.221 48.8098 103.584C49.4604 103.947 49.9671 104.459 50.3298 105.12C50.6924 105.771 50.8738 106.523 50.8738 107.376ZM48.9698 106.8C48.9591 106.128 48.7191 105.589 48.2498 105.184C47.7804 104.779 47.1991 104.576 46.5058 104.576C45.8764 104.576 45.3378 104.779 44.8898 105.184C44.4418 105.579 44.1751 106.117 44.0898 106.8H48.9698ZM64.009 100.88V102.368H61.049V112H59.225V102.368H56.249V100.88H64.009ZM73.9363 107.376C73.9363 107.707 73.9149 108.005 73.8723 108.272H67.1363C67.1896 108.976 67.4509 109.541 67.9203 109.968C68.3896 110.395 68.9656 110.608 69.6483 110.608C70.6296 110.608 71.3229 110.197 71.7283 109.376H73.6962C73.4296 110.187 72.9443 110.853 72.2403 111.376C71.5469 111.888 70.6829 112.144 69.6483 112.144C68.8056 112.144 68.0483 111.957 67.3763 111.584C66.7149 111.2 66.1923 110.667 65.8083 109.984C65.4349 109.291 65.2483 108.491 65.2483 107.584C65.2483 106.677 65.4296 105.883 65.7923 105.2C66.1656 104.507 66.6829 103.973 67.3443 103.6C68.0163 103.227 68.7843 103.04 69.6483 103.04C70.4803 103.04 71.2216 103.221 71.8723 103.584C72.5229 103.947 73.0296 104.459 73.3923 105.12C73.7549 105.771 73.9363 106.523 73.9363 107.376ZM72.0323 106.8C72.0216 106.128 71.7816 105.589 71.3123 105.184C70.8429 104.779 70.2616 104.576 69.5683 104.576C68.9389 104.576 68.4003 104.779 67.9523 105.184C67.5043 105.579 67.2376 106.117 67.1523 106.8H72.0323ZM77.5553 104.464C77.8219 104.016 78.1739 103.669 78.6113 103.424C79.0593 103.168 79.5873 103.04 80.1953 103.04V104.928H79.7313C79.0166 104.928 78.4726 105.109 78.0993 105.472C77.7366 105.835 77.5553 106.464 77.5553 107.36V112H75.7313V103.184H77.5553V104.464ZM92.5439 103.04C93.2372 103.04 93.8559 103.184 94.3999 103.472C94.9545 103.76 95.3865 104.187 95.6959 104.752C96.0159 105.317 96.1759 106 96.1759 106.8V112H94.3679V107.072C94.3679 106.283 94.1705 105.68 93.7759 105.264C93.3812 104.837 92.8425 104.624 92.1599 104.624C91.4772 104.624 90.9332 104.837 90.5279 105.264C90.1332 105.68 89.9359 106.283 89.9359 107.072V112H88.1279V107.072C88.1279 106.283 87.9305 105.68 87.5359 105.264C87.1412 104.837 86.6025 104.624 85.9199 104.624C85.2372 104.624 84.6932 104.837 84.2879 105.264C83.8932 105.68 83.6959 106.283 83.6959 107.072V112H81.8719V103.184H83.6959V104.192C83.9945 103.829 84.3732 103.547 84.8319 103.344C85.2905 103.141 85.7812 103.04 86.3039 103.04C87.0079 103.04 87.6372 103.189 88.1919 103.488C88.7465 103.787 89.1732 104.219 89.4719 104.784C89.7385 104.251 90.1545 103.829 90.7199 103.52C91.2852 103.2 91.8932 103.04 92.5439 103.04ZM99.4249 102.016C99.0942 102.016 98.8169 101.904 98.5929 101.68C98.3689 101.456 98.2569 101.179 98.2569 100.848C98.2569 100.517 98.3689 100.24 98.5929 100.016C98.8169 99.792 99.0942 99.68 99.4249 99.68C99.7449 99.68 100.017 99.792 100.241 100.016C100.465 100.24 100.577 100.517 100.577 100.848C100.577 101.179 100.465 101.456 100.241 101.68C100.017 101.904 99.7449 102.016 99.4249 102.016ZM100.321 103.184V112H98.4969V103.184H100.321ZM107.164 103.04C107.857 103.04 108.476 103.184 109.02 103.472C109.574 103.76 110.006 104.187 110.316 104.752C110.625 105.317 110.78 106 110.78 106.8V112H108.972V107.072C108.972 106.283 108.774 105.68 108.38 105.264C107.985 104.837 107.446 104.624 106.764 104.624C106.081 104.624 105.537 104.837 105.132 105.264C104.737 105.68 104.54 106.283 104.54 107.072V112H102.716V103.184H104.54V104.192C104.838 103.829 105.217 103.547 105.676 103.344C106.145 103.141 106.641 103.04 107.164 103.04ZM116.93 112.144C116.098 112.144 115.346 111.957 114.674 111.584C114.002 111.2 113.474 110.667 113.09 109.984C112.706 109.291 112.514 108.491 112.514 107.584C112.514 106.688 112.712 105.893 113.106 105.2C113.501 104.507 114.04 103.973 114.722 103.6C115.405 103.227 116.168 103.04 117.01 103.04C117.853 103.04 118.616 103.227 119.298 103.6C119.981 103.973 120.52 104.507 120.914 105.2C121.309 105.893 121.506 106.688 121.506 107.584C121.506 108.48 121.304 109.275 120.898 109.968C120.493 110.661 119.938 111.2 119.234 111.584C118.541 111.957 117.773 112.144 116.93 112.144ZM116.93 110.56C117.4 110.56 117.837 110.448 118.242 110.224C118.658 110 118.994 109.664 119.25 109.216C119.506 108.768 119.634 108.224 119.634 107.584C119.634 106.944 119.512 106.405 119.266 105.968C119.021 105.52 118.696 105.184 118.29 104.96C117.885 104.736 117.448 104.624 116.978 104.624C116.509 104.624 116.072 104.736 115.666 104.96C115.272 105.184 114.957 105.52 114.722 105.968C114.488 106.405 114.37 106.944 114.37 107.584C114.37 108.533 114.61 109.269 115.09 109.792C115.581 110.304 116.194 110.56 116.93 110.56ZM125.133 100.16V112H123.309V100.16H125.133ZM131.352 112.144C130.52 112.144 129.768 111.957 129.096 111.584C128.424 111.2 127.896 110.667 127.512 109.984C127.128 109.291 126.936 108.491 126.936 107.584C126.936 106.688 127.133 105.893 127.528 105.2C127.923 104.507 128.461 103.973 129.144 103.6C129.827 103.227 130.589 103.04 131.432 103.04C132.275 103.04 133.037 103.227 133.72 103.6C134.403 103.973 134.941 104.507 135.336 105.2C135.731 105.893 135.928 106.688 135.928 107.584C135.928 108.48 135.725 109.275 135.32 109.968C134.915 110.661 134.36 111.2 133.656 111.584C132.963 111.957 132.195 112.144 131.352 112.144ZM131.352 110.56C131.821 110.56 132.259 110.448 132.664 110.224C133.08 110 133.416 109.664 133.672 109.216C133.928 108.768 134.056 108.224 134.056 107.584C134.056 106.944 133.933 106.405 133.688 105.968C133.443 105.52 133.117 105.184 132.712 104.96C132.307 104.736 131.869 104.624 131.4 104.624C130.931 104.624 130.493 104.736 130.088 104.96C129.693 105.184 129.379 105.52 129.144 105.968C128.909 106.405 128.792 106.944 128.792 107.584C128.792 108.533 129.032 109.269 129.512 109.792C130.003 110.304 130.616 110.56 131.352 110.56ZM141.283 103.04C141.966 103.04 142.569 103.179 143.091 103.456C143.625 103.723 144.041 104.059 144.339 104.464V103.184H146.179V112.144C146.179 112.955 146.009 113.675 145.667 114.304C145.326 114.944 144.83 115.445 144.179 115.808C143.539 116.171 142.771 116.352 141.875 116.352C140.681 116.352 139.689 116.069 138.899 115.504C138.11 114.949 137.662 114.192 137.555 113.232H139.363C139.502 113.691 139.795 114.059 140.243 114.336C140.702 114.624 141.246 114.768 141.875 114.768C142.611 114.768 143.203 114.544 143.651 114.096C144.11 113.648 144.339 112.997 144.339 112.144V110.672C144.03 111.088 143.609 111.44 143.075 111.728C142.553 112.005 141.955 112.144 141.283 112.144C140.515 112.144 139.811 111.952 139.171 111.568C138.542 111.173 138.041 110.629 137.667 109.936C137.305 109.232 137.123 108.437 137.123 107.552C137.123 106.667 137.305 105.883 137.667 105.2C138.041 104.517 138.542 103.989 139.171 103.616C139.811 103.232 140.515 103.04 141.283 103.04ZM144.339 107.584C144.339 106.976 144.211 106.448 143.955 106C143.71 105.552 143.385 105.211 142.979 104.976C142.574 104.741 142.137 104.624 141.667 104.624C141.198 104.624 140.761 104.741 140.355 104.976C139.95 105.2 139.619 105.536 139.363 105.984C139.118 106.421 138.995 106.944 138.995 107.552C138.995 108.16 139.118 108.693 139.363 109.152C139.619 109.611 139.95 109.963 140.355 110.208C140.771 110.443 141.209 110.56 141.667 110.56C142.137 110.56 142.574 110.443 142.979 110.208C143.385 109.973 143.71 109.632 143.955 109.184C144.211 108.725 144.339 108.192 144.339 107.584ZM156.511 103.184L151.103 116.144H149.215L151.007 111.856L147.535 103.184H149.567L152.047 109.904L154.623 103.184H156.511Z" fill="black"/>
<path d="M25.008 131.88V138.968C25.008 139.811 25.2267 140.445 25.664 140.872C26.112 141.299 26.7307 141.512 27.52 141.512C28.32 141.512 28.9387 141.299 29.376 140.872C29.824 140.445 30.048 139.811 30.048 138.968V131.88H31.872V138.936C31.872 139.843 31.6747 140.611 31.28 141.24C30.8853 141.869 30.3573 142.339 29.696 142.648C29.0347 142.957 28.304 143.112 27.504 143.112C26.704 143.112 25.9733 142.957 25.312 142.648C24.6613 142.339 24.144 141.869 23.76 141.24C23.376 140.611 23.184 139.843 23.184 138.936V131.88H25.008ZM37.4469 143.144C36.7535 143.144 36.1295 143.021 35.5749 142.776C35.0309 142.52 34.5989 142.179 34.2789 141.752C33.9589 141.315 33.7882 140.829 33.7669 140.296H35.6549C35.6869 140.669 35.8629 140.984 36.1829 141.24C36.5135 141.485 36.9242 141.608 37.4149 141.608C37.9269 141.608 38.3215 141.512 38.5989 141.32C38.8869 141.117 39.0309 140.861 39.0309 140.552C39.0309 140.221 38.8709 139.976 38.5509 139.816C38.2415 139.656 37.7455 139.48 37.0629 139.288C36.4015 139.107 35.8629 138.931 35.4469 138.76C35.0309 138.589 34.6682 138.328 34.3589 137.976C34.0602 137.624 33.9109 137.16 33.9109 136.584C33.9109 136.115 34.0495 135.688 34.3269 135.304C34.6042 134.909 34.9989 134.6 35.5109 134.376C36.0335 134.152 36.6309 134.04 37.3029 134.04C38.3055 134.04 39.1109 134.296 39.7189 134.808C40.3375 135.309 40.6682 135.997 40.7109 136.872H38.8869C38.8549 136.477 38.6949 136.163 38.4069 135.928C38.1189 135.693 37.7295 135.576 37.2389 135.576C36.7589 135.576 36.3909 135.667 36.1349 135.848C35.8789 136.029 35.7509 136.269 35.7509 136.568C35.7509 136.803 35.8362 137 36.0069 137.16C36.1775 137.32 36.3855 137.448 36.6309 137.544C36.8762 137.629 37.2389 137.741 37.7189 137.88C38.3589 138.051 38.8815 138.227 39.2869 138.408C39.7029 138.579 40.0602 138.835 40.3589 139.176C40.6575 139.517 40.8122 139.971 40.8229 140.536C40.8229 141.037 40.6842 141.485 40.4069 141.88C40.1295 142.275 39.7349 142.584 39.2229 142.808C38.7215 143.032 38.1295 143.144 37.4469 143.144ZM50.8738 138.376C50.8738 138.707 50.8524 139.005 50.8098 139.272H44.0738C44.1271 139.976 44.3884 140.541 44.8578 140.968C45.3271 141.395 45.9031 141.608 46.5858 141.608C47.5671 141.608 48.2604 141.197 48.6658 140.376H50.6337C50.3671 141.187 49.8818 141.853 49.1778 142.376C48.4844 142.888 47.6204 143.144 46.5858 143.144C45.7431 143.144 44.9858 142.957 44.3138 142.584C43.6524 142.2 43.1298 141.667 42.7458 140.984C42.3724 140.291 42.1858 139.491 42.1858 138.584C42.1858 137.677 42.3671 136.883 42.7298 136.2C43.1031 135.507 43.6204 134.973 44.2818 134.6C44.9538 134.227 45.7218 134.04 46.5858 134.04C47.4178 134.04 48.1591 134.221 48.8098 134.584C49.4604 134.947 49.9671 135.459 50.3298 136.12C50.6924 136.771 50.8738 137.523 50.8738 138.376ZM48.9698 137.8C48.9591 137.128 48.7191 136.589 48.2498 136.184C47.7804 135.779 47.1991 135.576 46.5058 135.576C45.8764 135.576 45.3378 135.779 44.8898 136.184C44.4418 136.579 44.1751 137.117 44.0898 137.8H48.9698ZM65.961 143H64.137L58.649 134.696V143H56.825V131.864H58.649L64.137 140.152V131.864H65.961V143ZM67.7483 138.552C67.7483 137.667 67.9296 136.883 68.2923 136.2C68.6656 135.517 69.1669 134.989 69.7963 134.616C70.4363 134.232 71.1403 134.04 71.9083 134.04C72.6016 134.04 73.2043 134.179 73.7163 134.456C74.2389 134.723 74.6549 135.059 74.9643 135.464V134.184H76.8043V143H74.9643V141.688C74.6549 142.104 74.2336 142.451 73.7003 142.728C73.1669 143.005 72.5589 143.144 71.8763 143.144C71.1189 143.144 70.4256 142.952 69.7963 142.568C69.1669 142.173 68.6656 141.629 68.2923 140.936C67.9296 140.232 67.7483 139.437 67.7483 138.552ZM74.9643 138.584C74.9643 137.976 74.8363 137.448 74.5803 137C74.3349 136.552 74.0096 136.211 73.6043 135.976C73.1989 135.741 72.7616 135.624 72.2923 135.624C71.8229 135.624 71.3856 135.741 70.9803 135.976C70.5749 136.2 70.2443 136.536 69.9883 136.984C69.7429 137.421 69.6203 137.944 69.6203 138.552C69.6203 139.16 69.7429 139.693 69.9883 140.152C70.2443 140.611 70.5749 140.963 70.9803 141.208C71.3963 141.443 71.8336 141.56 72.2923 141.56C72.7616 141.56 73.1989 141.443 73.6043 141.208C74.0096 140.973 74.3349 140.632 74.5803 140.184C74.8363 139.725 74.9643 139.192 74.9643 138.584ZM89.872 134.04C90.5653 134.04 91.184 134.184 91.728 134.472C92.2827 134.76 92.7147 135.187 93.024 135.752C93.344 136.317 93.504 137 93.504 137.8V143H91.696V138.072C91.696 137.283 91.4987 136.68 91.104 136.264C90.7093 135.837 90.1707 135.624 89.488 135.624C88.8053 135.624 88.2613 135.837 87.856 136.264C87.4613 136.68 87.264 137.283 87.264 138.072V143H85.456V138.072C85.456 137.283 85.2587 136.68 84.864 136.264C84.4693 135.837 83.9307 135.624 83.248 135.624C82.5653 135.624 82.0213 135.837 81.616 136.264C81.2213 136.68 81.024 137.283 81.024 138.072V143H79.2V134.184H81.024V135.192C81.3227 134.829 81.7013 134.547 82.16 134.344C82.6187 134.141 83.1093 134.04 83.632 134.04C84.336 134.04 84.9653 134.189 85.52 134.488C86.0747 134.787 86.5013 135.219 86.8 135.784C87.0667 135.251 87.4827 134.829 88.048 134.52C88.6133 134.2 89.2213 134.04 89.872 134.04ZM103.905 138.376C103.905 138.707 103.884 139.005 103.841 139.272H97.105C97.1583 139.976 97.4197 140.541 97.889 140.968C98.3583 141.395 98.9343 141.608 99.617 141.608C100.598 141.608 101.292 141.197 101.697 140.376H103.665C103.398 141.187 102.913 141.853 102.209 142.376C101.516 142.888 100.652 143.144 99.617 143.144C98.7743 143.144 98.017 142.957 97.345 142.584C96.6837 142.2 96.161 141.667 95.777 140.984C95.4037 140.291 95.217 139.491 95.217 138.584C95.217 137.677 95.3983 136.883 95.761 136.2C96.1343 135.507 96.6517 134.973 97.313 134.6C97.985 134.227 98.753 134.04 99.617 134.04C100.449 134.04 101.19 134.221 101.841 134.584C102.492 134.947 102.998 135.459 103.361 136.12C103.724 136.771 103.905 137.523 103.905 138.376ZM102.001 137.8C101.99 137.128 101.75 136.589 101.281 136.184C100.812 135.779 100.23 135.576 99.537 135.576C98.9077 135.576 98.369 135.779 97.921 136.184C97.473 136.579 97.2063 137.117 97.121 137.8H102.001ZM108.9 143.144C108.207 143.144 107.583 143.021 107.028 142.776C106.484 142.52 106.052 142.179 105.732 141.752C105.412 141.315 105.241 140.829 105.22 140.296H107.108C107.14 140.669 107.316 140.984 107.636 141.24C107.967 141.485 108.377 141.608 108.868 141.608C109.38 141.608 109.775 141.512 110.052 141.32C110.34 141.117 110.484 140.861 110.484 140.552C110.484 140.221 110.324 139.976 110.004 139.816C109.695 139.656 109.199 139.48 108.516 139.288C107.855 139.107 107.316 138.931 106.9 138.76C106.484 138.589 106.121 138.328 105.812 137.976C105.513 137.624 105.364 137.16 105.364 136.584C105.364 136.115 105.503 135.688 105.78 135.304C106.057 134.909 106.452 134.6 106.964 134.376C107.487 134.152 108.084 134.04 108.756 134.04C109.759 134.04 110.564 134.296 111.172 134.808C111.791 135.309 112.121 135.997 112.164 136.872H110.34C110.308 136.477 110.148 136.163 109.86 135.928C109.572 135.693 109.183 135.576 108.692 135.576C108.212 135.576 107.844 135.667 107.588 135.848C107.332 136.029 107.204 136.269 107.204 136.568C107.204 136.803 107.289 137 107.46 137.16C107.631 137.32 107.839 137.448 108.084 137.544C108.329 137.629 108.692 137.741 109.172 137.88C109.812 138.051 110.335 138.227 110.74 138.408C111.156 138.579 111.513 138.835 111.812 139.176C112.111 139.517 112.265 139.971 112.276 140.536C112.276 141.037 112.137 141.485 111.86 141.88C111.583 142.275 111.188 142.584 110.676 142.808C110.175 143.032 109.583 143.144 108.9 143.144Z" fill="black"/>
<path d="M28.272 175.112C27.2373 175.112 26.2827 174.872 25.408 174.392C24.544 173.901 23.856 173.224 23.344 172.36C22.8427 171.485 22.592 170.504 22.592 169.416C22.592 168.328 22.8427 167.352 23.344 166.488C23.856 165.624 24.544 164.952 25.408 164.472C26.2827 163.981 27.2373 163.736 28.272 163.736C29.3173 163.736 30.272 163.981 31.136 164.472C32.0107 164.952 32.6987 165.624 33.2 166.488C33.7013 167.352 33.952 168.328 33.952 169.416C33.952 170.504 33.7013 171.485 33.2 172.36C32.6987 173.224 32.0107 173.901 31.136 174.392C30.272 174.872 29.3173 175.112 28.272 175.112ZM28.272 173.528C29.008 173.528 29.664 173.363 30.24 173.032C30.816 172.691 31.264 172.211 31.584 171.592C31.9147 170.963 32.08 170.237 32.08 169.416C32.08 168.595 31.9147 167.875 31.584 167.256C31.264 166.637 30.816 166.163 30.24 165.832C29.664 165.501 29.008 165.336 28.272 165.336C27.536 165.336 26.88 165.501 26.304 165.832C25.728 166.163 25.2747 166.637 24.944 167.256C24.624 167.875 24.464 168.595 24.464 169.416C24.464 170.237 24.624 170.963 24.944 171.592C25.2747 172.211 25.728 172.691 26.304 173.032C26.88 173.363 27.536 173.528 28.272 173.528ZM37.8749 167.672V172.552C37.8749 172.883 37.9495 173.123 38.0989 173.272C38.2589 173.411 38.5255 173.48 38.8989 173.48H40.0189V175H38.5789C37.7575 175 37.1282 174.808 36.6909 174.424C36.2535 174.04 36.0349 173.416 36.0349 172.552V167.672H34.9949V166.184H36.0349V163.992H37.8749V166.184H40.0189V167.672H37.8749ZM46.26 166.04C46.932 166.04 47.5293 166.184 48.052 166.472C48.5853 166.76 49.0013 167.187 49.3 167.752C49.6093 168.317 49.764 169 49.764 169.8V175H47.956V170.072C47.956 169.283 47.7587 168.68 47.364 168.264C46.9693 167.837 46.4307 167.624 45.748 167.624C45.0653 167.624 44.5213 167.837 44.116 168.264C43.7213 168.68 43.524 169.283 43.524 170.072V175H41.7V163.16H43.524V167.208C43.8333 166.835 44.2227 166.547 44.692 166.344C45.172 166.141 45.6947 166.04 46.26 166.04ZM60.1706 170.376C60.1706 170.707 60.1493 171.005 60.1066 171.272H53.3706C53.424 171.976 53.6853 172.541 54.1546 172.968C54.624 173.395 55.2 173.608 55.8826 173.608C56.864 173.608 57.5573 173.197 57.9626 172.376H59.9306C59.664 173.187 59.1786 173.853 58.4746 174.376C57.7813 174.888 56.9173 175.144 55.8826 175.144C55.04 175.144 54.2826 174.957 53.6106 174.584C52.9493 174.2 52.4266 173.667 52.0426 172.984C51.6693 172.291 51.4826 171.491 51.4826 170.584C51.4826 169.677 51.664 168.883 52.0266 168.2C52.4 167.507 52.9173 166.973 53.5786 166.6C54.2506 166.227 55.0186 166.04 55.8826 166.04C56.7146 166.04 57.456 166.221 58.1066 166.584C58.7573 166.947 59.264 167.459 59.6266 168.12C59.9893 168.771 60.1706 169.523 60.1706 170.376ZM58.2666 169.8C58.256 169.128 58.016 168.589 57.5466 168.184C57.0773 167.779 56.496 167.576 55.8026 167.576C55.1733 167.576 54.6346 167.779 54.1866 168.184C53.7386 168.579 53.472 169.117 53.3866 169.8H58.2666ZM63.7896 167.464C64.0563 167.016 64.4083 166.669 64.8456 166.424C65.2936 166.168 65.8216 166.04 66.4296 166.04V167.928H65.9656C65.251 167.928 64.707 168.109 64.3336 168.472C63.971 168.835 63.7896 169.464 63.7896 170.36V175H61.9656V166.184H63.7896V167.464ZM74.0865 163.88V175H72.2625V163.88H74.0865ZM80.9293 166.04C81.6226 166.04 82.2413 166.184 82.7853 166.472C83.3399 166.76 83.7719 167.187 84.0813 167.752C84.3906 168.317 84.5453 169 84.5453 169.8V175H82.7373V170.072C82.7373 169.283 82.5399 168.68 82.1453 168.264C81.7506 167.837 81.2119 167.624 80.5293 167.624C79.8466 167.624 79.3026 167.837 78.8973 168.264C78.5026 168.68 78.3053 169.283 78.3053 170.072V175H76.4813V166.184H78.3053V167.192C78.6039 166.829 78.9826 166.547 79.4413 166.344C79.9106 166.141 80.4066 166.04 80.9293 166.04ZM90.0719 175.144C89.3785 175.144 88.7545 175.021 88.1999 174.776C87.6559 174.52 87.2239 174.179 86.9039 173.752C86.5839 173.315 86.4132 172.829 86.3919 172.296H88.2799C88.3119 172.669 88.4879 172.984 88.8079 173.24C89.1385 173.485 89.5492 173.608 90.0399 173.608C90.5519 173.608 90.9465 173.512 91.2239 173.32C91.5119 173.117 91.6559 172.861 91.6559 172.552C91.6559 172.221 91.4959 171.976 91.1759 171.816C90.8665 171.656 90.3705 171.48 89.6879 171.288C89.0265 171.107 88.4879 170.931 88.0719 170.76C87.6559 170.589 87.2932 170.328 86.9839 169.976C86.6852 169.624 86.5359 169.16 86.5359 168.584C86.5359 168.115 86.6745 167.688 86.9519 167.304C87.2292 166.909 87.6239 166.6 88.1359 166.376C88.6585 166.152 89.2559 166.04 89.9279 166.04C90.9305 166.04 91.7359 166.296 92.3439 166.808C92.9625 167.309 93.2932 167.997 93.3359 168.872H91.5119C91.4799 168.477 91.3199 168.163 91.0319 167.928C90.7439 167.693 90.3545 167.576 89.8639 167.576C89.3839 167.576 89.0159 167.667 88.7599 167.848C88.5039 168.029 88.3759 168.269 88.3759 168.568C88.3759 168.803 88.4612 169 88.6319 169.16C88.8025 169.32 89.0105 169.448 89.2559 169.544C89.5012 169.629 89.8639 169.741 90.3439 169.88C90.9839 170.051 91.5065 170.227 91.9119 170.408C92.3279 170.579 92.6852 170.835 92.9839 171.176C93.2825 171.517 93.4372 171.971 93.4479 172.536C93.4479 173.037 93.3092 173.485 93.0319 173.88C92.7545 174.275 92.3599 174.584 91.8479 174.808C91.3465 175.032 90.7545 175.144 90.0719 175.144ZM97.5468 167.672V172.552C97.5468 172.883 97.6214 173.123 97.7708 173.272C97.9308 173.411 98.1974 173.48 98.5708 173.48H99.6908V175H98.2508C97.4294 175 96.8001 174.808 96.3628 174.424C95.9254 174.04 95.7068 173.416 95.7068 172.552V167.672H94.6668V166.184H95.7068V163.992H97.5468V166.184H99.6908V167.672H97.5468ZM103.196 167.464C103.463 167.016 103.815 166.669 104.252 166.424C104.7 166.168 105.228 166.04 105.836 166.04V167.928H105.372C104.657 167.928 104.113 168.109 103.74 168.472C103.377 168.835 103.196 169.464 103.196 170.36V175H101.372V166.184H103.196V167.464ZM115.497 166.184V175H113.673V173.96C113.385 174.323 113.006 174.611 112.537 174.824C112.078 175.027 111.587 175.128 111.065 175.128C110.371 175.128 109.747 174.984 109.193 174.696C108.649 174.408 108.217 173.981 107.897 173.416C107.587 172.851 107.433 172.168 107.433 171.368V166.184H109.241V171.096C109.241 171.885 109.438 172.493 109.833 172.92C110.227 173.336 110.766 173.544 111.449 173.544C112.131 173.544 112.67 173.336 113.065 172.92C113.47 172.493 113.673 171.885 113.673 171.096V166.184H115.497ZM117.295 170.584C117.295 169.677 117.476 168.883 117.839 168.2C118.212 167.507 118.724 166.973 119.375 166.6C120.026 166.227 120.772 166.04 121.615 166.04C122.682 166.04 123.562 166.296 124.255 166.808C124.959 167.309 125.434 168.029 125.679 168.968H123.711C123.551 168.531 123.295 168.189 122.943 167.944C122.591 167.699 122.148 167.576 121.615 167.576C120.868 167.576 120.271 167.843 119.823 168.376C119.386 168.899 119.167 169.635 119.167 170.584C119.167 171.533 119.386 172.275 119.823 172.808C120.271 173.341 120.868 173.608 121.615 173.608C122.671 173.608 123.37 173.144 123.711 172.216H125.679C125.423 173.112 124.943 173.827 124.239 174.36C123.535 174.883 122.66 175.144 121.615 175.144C120.772 175.144 120.026 174.957 119.375 174.584C118.724 174.2 118.212 173.667 117.839 172.984C117.476 172.291 117.295 171.491 117.295 170.584ZM129.625 167.672V172.552C129.625 172.883 129.7 173.123 129.849 173.272C130.009 173.411 130.276 173.48 130.649 173.48H131.769V175H130.329C129.508 175 128.878 174.808 128.441 174.424C128.004 174.04 127.785 173.416 127.785 172.552V167.672H126.745V166.184H127.785V163.992H129.625V166.184H131.769V167.672H129.625ZM134.378 165.016C134.047 165.016 133.77 164.904 133.546 164.68C133.322 164.456 133.21 164.179 133.21 163.848C133.21 163.517 133.322 163.24 133.546 163.016C133.77 162.792 134.047 162.68 134.378 162.68C134.698 162.68 134.97 162.792 135.194 163.016C135.418 163.24 135.53 163.517 135.53 163.848C135.53 164.179 135.418 164.456 135.194 164.68C134.97 164.904 134.698 165.016 134.378 165.016ZM135.274 166.184V175H133.45V166.184H135.274ZM141.493 175.144C140.661 175.144 139.909 174.957 139.237 174.584C138.565 174.2 138.037 173.667 137.653 172.984C137.269 172.291 137.077 171.491 137.077 170.584C137.077 169.688 137.274 168.893 137.669 168.2C138.063 167.507 138.602 166.973 139.285 166.6C139.967 166.227 140.73 166.04 141.573 166.04C142.415 166.04 143.178 166.227 143.861 166.6C144.543 166.973 145.082 167.507 145.477 168.2C145.871 168.893 146.069 169.688 146.069 170.584C146.069 171.48 145.866 172.275 145.461 172.968C145.055 173.661 144.501 174.2 143.797 174.584C143.103 174.957 142.335 175.144 141.493 175.144ZM141.493 173.56C141.962 173.56 142.399 173.448 142.805 173.224C143.221 173 143.557 172.664 143.813 172.216C144.069 171.768 144.197 171.224 144.197 170.584C144.197 169.944 144.074 169.405 143.829 168.968C143.583 168.52 143.258 168.184 142.853 167.96C142.447 167.736 142.01 167.624 141.541 167.624C141.071 167.624 140.634 167.736 140.229 167.96C139.834 168.184 139.519 168.52 139.285 168.968C139.05 169.405 138.933 169.944 138.933 170.584C138.933 171.533 139.173 172.269 139.653 172.792C140.143 173.304 140.757 173.56 141.493 173.56ZM152.32 166.04C153.013 166.04 153.632 166.184 154.176 166.472C154.731 166.76 155.163 167.187 155.472 167.752C155.781 168.317 155.936 169 155.936 169.8V175H154.128V170.072C154.128 169.283 153.931 168.68 153.536 168.264C153.141 167.837 152.603 167.624 151.92 167.624C151.237 167.624 150.693 167.837 150.288 168.264C149.893 168.68 149.696 169.283 149.696 170.072V175H147.872V166.184H149.696V167.192C149.995 166.829 150.373 166.547 150.832 166.344C151.301 166.141 151.797 166.04 152.32 166.04Z" fill="black"/>
<path d="M79.864 245.112C79.1173 245.112 78.4453 244.984 77.848 244.728C77.2507 244.461 76.7813 244.088 76.44 243.608C76.0987 243.128 75.928 242.568 75.928 241.928H77.88C77.9227 242.408 78.1093 242.803 78.44 243.112C78.7813 243.421 79.256 243.576 79.864 243.576C80.4933 243.576 80.984 243.427 81.336 243.128C81.688 242.819 81.864 242.424 81.864 241.944C81.864 241.571 81.752 241.267 81.528 241.032C81.3147 240.797 81.0427 240.616 80.712 240.488C80.392 240.36 79.944 240.221 79.368 240.072C78.6427 239.88 78.0507 239.688 77.592 239.496C77.144 239.293 76.76 238.984 76.44 238.568C76.12 238.152 75.96 237.597 75.96 236.904C75.96 236.264 76.12 235.704 76.44 235.224C76.76 234.744 77.208 234.376 77.784 234.12C78.36 233.864 79.0267 233.736 79.784 233.736C80.8613 233.736 81.7413 234.008 82.424 234.552C83.1173 235.085 83.5013 235.821 83.576 236.76H81.56C81.528 236.355 81.336 236.008 80.984 235.72C80.632 235.432 80.168 235.288 79.592 235.288C79.0693 235.288 78.6427 235.421 78.312 235.688C77.9813 235.955 77.816 236.339 77.816 236.84C77.816 237.181 77.9173 237.464 78.12 237.688C78.3333 237.901 78.6 238.072 78.92 238.2C79.24 238.328 79.6773 238.467 80.232 238.616C80.968 238.819 81.5653 239.021 82.024 239.224C82.4933 239.427 82.888 239.741 83.208 240.168C83.5387 240.584 83.704 241.144 83.704 241.848C83.704 242.413 83.5493 242.947 83.24 243.448C82.9413 243.949 82.4987 244.355 81.912 244.664C81.336 244.963 80.6533 245.112 79.864 245.112ZM93.8403 236.184V245H92.0163V243.96C91.7283 244.323 91.3496 244.611 90.8803 244.824C90.4216 245.027 89.9309 245.128 89.4083 245.128C88.7149 245.128 88.0909 244.984 87.5363 244.696C86.9923 244.408 86.5603 243.981 86.2403 243.416C85.9309 242.851 85.7763 242.168 85.7763 241.368V236.184H87.5843V241.096C87.5843 241.885 87.7816 242.493 88.1763 242.92C88.5709 243.336 89.1096 243.544 89.7923 243.544C90.4749 243.544 91.0136 243.336 91.4083 242.92C91.8136 242.493 92.0163 241.885 92.0163 241.096V236.184H93.8403ZM98.0709 237.496C98.3802 237.069 98.8015 236.723 99.3349 236.456C99.8789 236.179 100.482 236.04 101.143 236.04C101.922 236.04 102.626 236.227 103.255 236.6C103.884 236.973 104.38 237.507 104.743 238.2C105.106 238.883 105.287 239.667 105.287 240.552C105.287 241.437 105.106 242.232 104.743 242.936C104.38 243.629 103.879 244.173 103.239 244.568C102.61 244.952 101.911 245.144 101.143 245.144C100.46 245.144 99.8522 245.011 99.3189 244.744C98.7962 244.477 98.3802 244.136 98.0709 243.72V245H96.2469V233.16H98.0709V237.496ZM103.431 240.552C103.431 239.944 103.303 239.421 103.047 238.984C102.802 238.536 102.471 238.2 102.055 237.976C101.65 237.741 101.212 237.624 100.743 237.624C100.284 237.624 99.8469 237.741 99.4309 237.976C99.0255 238.211 98.6949 238.552 98.4389 239C98.1935 239.448 98.0709 239.976 98.0709 240.584C98.0709 241.192 98.1935 241.725 98.4389 242.184C98.6949 242.632 99.0255 242.973 99.4309 243.208C99.8469 243.443 100.284 243.56 100.743 243.56C101.212 243.56 101.65 243.443 102.055 243.208C102.471 242.963 102.802 242.611 103.047 242.152C103.303 241.693 103.431 241.16 103.431 240.552ZM117.763 236.04C118.456 236.04 119.075 236.184 119.619 236.472C120.173 236.76 120.605 237.187 120.915 237.752C121.235 238.317 121.395 239 121.395 239.8V245H119.587V240.072C119.587 239.283 119.389 238.68 118.995 238.264C118.6 237.837 118.061 237.624 117.379 237.624C116.696 237.624 116.152 237.837 115.747 238.264C115.352 238.68 115.155 239.283 115.155 240.072V245H113.347V240.072C113.347 239.283 113.149 238.68 112.755 238.264C112.36 237.837 111.821 237.624 111.139 237.624C110.456 237.624 109.912 237.837 109.507 238.264C109.112 238.68 108.915 239.283 108.915 240.072V245H107.091V236.184H108.915V237.192C109.213 236.829 109.592 236.547 110.051 236.344C110.509 236.141 111 236.04 111.523 236.04C112.227 236.04 112.856 236.189 113.411 236.488C113.965 236.787 114.392 237.219 114.691 237.784C114.957 237.251 115.373 236.829 115.939 236.52C116.504 236.2 117.112 236.04 117.763 236.04ZM124.644 235.016C124.313 235.016 124.036 234.904 123.812 234.68C123.588 234.456 123.476 234.179 123.476 233.848C123.476 233.517 123.588 233.24 123.812 233.016C124.036 232.792 124.313 232.68 124.644 232.68C124.964 232.68 125.236 232.792 125.46 233.016C125.684 233.24 125.796 233.517 125.796 233.848C125.796 234.179 125.684 234.456 125.46 234.68C125.236 234.904 124.964 235.016 124.644 235.016ZM125.54 236.184V245H123.716V236.184H125.54ZM130.062 237.672V242.552C130.062 242.883 130.137 243.123 130.286 243.272C130.446 243.411 130.713 243.48 131.086 243.48H132.206V245H130.766C129.945 245 129.316 244.808 128.878 244.424C128.441 244.04 128.222 243.416 128.222 242.552V237.672H127.182V236.184H128.222V233.992H130.062V236.184H132.206V237.672H130.062Z" fill="white"/>
</svg>
