<svg width="544" height="895" viewBox="0 0 544 895" fill="none" xmlns="http://www.w3.org/2000/svg">
<path d="M106.962 287.648V341.351L60 368.238L13.0381 341.351V287.648L60 260.761L106.962 287.648Z" fill="#F2DC5D" stroke="#FFF2AA" stroke-width="10"/>
<path d="M159.962 375.648V429.351L113 456.238L66.0381 429.351V375.648L113 348.761L159.962 375.648Z" fill="#F2DC5D" stroke="#FFF2AA" stroke-width="10"/>
<path d="M208.962 287.648V341.351L162 368.238L115.038 341.351V287.648L162 260.761L208.962 287.648Z" fill="#F2DC5D" stroke="#FFF2AA" stroke-width="10"/>
<path d="M258.962 375.648V429.351L212 456.238L165.038 429.351V375.648L212 348.761L258.962 375.648Z" fill="#F2DC5D" stroke="#FFF2AA" stroke-width="10"/>
<path d="M311.962 463.648V517.351L265 544.238L218.038 517.351V463.648L265 436.761L311.962 463.648Z" fill="#F2DC5D" stroke="#FFF2AA" stroke-width="10"/>
<path d="M360.962 375.648V429.351L314 456.238L267.038 429.351V375.648L314 348.761L360.962 375.648Z" fill="#F2DC5D" stroke="#FFF2AA" stroke-width="10"/>
<path d="M108.962 463.648V517.351L62 544.238L15.0381 517.351V463.648L62 436.761L108.962 463.648Z" fill="#F2DC5D" stroke="#FFF2AA" stroke-width="10"/>
<path d="M161.962 551.648V605.351L115 632.238L68.0381 605.351V551.648L115 524.761L161.962 551.648Z" fill="#F2DC5D" stroke="#FFF2AA" stroke-width="10"/>
<path d="M210.962 463.648V517.351L164 544.238L117.038 517.351V463.648L164 436.761L210.962 463.648Z" fill="#F2DC5D" stroke="#FFF2AA" stroke-width="10"/>
<path d="M106.962 287.648V341.351L60 368.238L13.0381 341.351V287.648L60 260.761L106.962 287.648Z" fill="#F2DC5D" stroke="#FFF2AA" stroke-width="10"/>
<path d="M159.962 375.648V429.351L113 456.238L66.0381 429.351V375.648L113 348.761L159.962 375.648Z" fill="#F2DC5D" stroke="#FFF2AA" stroke-width="10"/>
<path d="M208.962 287.648V341.351L162 368.238L115.038 341.351V287.648L162 260.761L208.962 287.648Z" fill="#F2DC5D" stroke="#FFF2AA" stroke-width="10"/>
<path d="M258.962 375.648V429.351L212 456.238L165.038 429.351V375.648L212 348.761L258.962 375.648Z" fill="#F2DC5D" stroke="#FFF2AA" stroke-width="10"/>
<path d="M311.962 463.648V517.351L265 544.238L218.038 517.351V463.648L265 436.761L311.962 463.648Z" fill="#F2DC5D" stroke="#FFF2AA" stroke-width="10"/>
<path d="M360.962 375.648V429.351L314 456.238L267.038 429.351V375.648L314 348.761L360.962 375.648Z" fill="#F2DC5D" stroke="#FFF2AA" stroke-width="10"/>
<path d="M108.962 463.648V517.351L62 544.238L15.0381 517.351V463.648L62 436.761L108.962 463.648Z" fill="#F2DC5D" stroke="#FFF2AA" stroke-width="10"/>
<path d="M161.962 551.648V605.351L115 632.238L68.0381 605.351V551.648L115 524.761L161.962 551.648Z" fill="#F2DC5D" stroke="#FFF2AA" stroke-width="10"/>
<path d="M210.962 463.648V517.351L164 544.238L117.038 517.351V463.648L164 436.761L210.962 463.648Z" fill="#F2DC5D" stroke="#FFF2AA" stroke-width="10"/>
<path d="M252.962 32.6484V86.3506L206 113.238L159.038 86.3506V32.6484L206 5.76074L252.962 32.6484Z" fill="#F2DC5D" stroke="#FFF2AA" stroke-width="10"/>
<path d="M305.962 120.648V174.351L259 201.238L212.038 174.351V120.648L259 93.7607L305.962 120.648Z" fill="#F2DC5D" stroke="#FFF2AA" stroke-width="10"/>
<path d="M354.962 32.6484V86.3506L308 113.238L261.038 86.3506V32.6484L308 5.76074L354.962 32.6484Z" fill="#F2DC5D" stroke="#FFF2AA" stroke-width="10"/>
<path d="M404.962 120.648V174.351L358 201.238L311.038 174.351V120.648L358 93.7607L404.962 120.648Z" fill="#F2DC5D" stroke="#FFF2AA" stroke-width="10"/>
<path d="M457.962 208.648V262.351L411 289.238L364.038 262.351V208.648L411 181.761L457.962 208.648Z" fill="#F2DC5D" stroke="#FFF2AA" stroke-width="10"/>
<path d="M506.962 120.648V174.351L460 201.238L413.038 174.351V120.648L460 93.7607L506.962 120.648Z" fill="#F2DC5D" stroke="#FFF2AA" stroke-width="10"/>
<path d="M254.962 208.648V262.351L208 289.238L161.038 262.351V208.648L208 181.761L254.962 208.648Z" fill="#F2DC5D" stroke="#FFF2AA" stroke-width="10"/>
<path d="M307.962 296.648V350.351L261 377.238L214.038 350.351V296.648L261 269.761L307.962 296.648Z" fill="#F2DC5D" stroke="#FFF2AA" stroke-width="10"/>
<path d="M356.962 208.648V262.351L310 289.238L263.038 262.351V208.648L310 181.761L356.962 208.648Z" fill="#F2DC5D" stroke="#FFF2AA" stroke-width="10"/>
<path d="M252.962 32.6484V86.3506L206 113.238L159.038 86.3506V32.6484L206 5.76074L252.962 32.6484Z" fill="#F2DC5D" stroke="#FFF2AA" stroke-width="10"/>
<path d="M305.962 120.648V174.351L259 201.238L212.038 174.351V120.648L259 93.7607L305.962 120.648Z" fill="#F2DC5D" stroke="#FFF2AA" stroke-width="10"/>
<path d="M354.962 32.6484V86.3506L308 113.238L261.038 86.3506V32.6484L308 5.76074L354.962 32.6484Z" fill="#F2DC5D" stroke="#FFF2AA" stroke-width="10"/>
<path d="M404.962 120.648V174.351L358 201.238L311.038 174.351V120.648L358 93.7607L404.962 120.648Z" fill="#F2DC5D" stroke="#FFF2AA" stroke-width="10"/>
<path d="M457.962 208.648V262.351L411 289.238L364.038 262.351V208.648L411 181.761L457.962 208.648Z" fill="#F2DC5D" stroke="#FFF2AA" stroke-width="10"/>
<path d="M506.962 120.648V174.351L460 201.238L413.038 174.351V120.648L460 93.7607L506.962 120.648Z" fill="#F2DC5D" stroke="#FFF2AA" stroke-width="10"/>
<path d="M254.962 208.648V262.351L208 289.238L161.038 262.351V208.648L208 181.761L254.962 208.648Z" fill="#F2DC5D" stroke="#FFF2AA" stroke-width="10"/>
<path d="M307.962 296.648V350.351L261 377.238L214.038 350.351V296.648L261 269.761L307.962 296.648Z" fill="#F2DC5D" stroke="#FFF2AA" stroke-width="10"/>
<path d="M356.962 208.648V262.351L310 289.238L263.038 262.351V208.648L310 181.761L356.962 208.648Z" fill="#F2DC5D" stroke="#FFF2AA" stroke-width="10"/>
<path d="M410.962 287.648V341.351L364 368.238L317.038 341.351V287.648L364 260.761L410.962 287.648Z" fill="#F2DC5D" stroke="#FFF2AA" stroke-width="10"/>
<path d="M463.962 375.648V429.351L417 456.238L370.038 429.351V375.648L417 348.761L463.962 375.648Z" fill="#F2DC5D" stroke="#FFF2AA" stroke-width="10"/>
<path d="M512.962 287.648V341.351L466 368.238L419.038 341.351V287.648L466 260.761L512.962 287.648Z" fill="#F2DC5D" stroke="#FFF2AA" stroke-width="10"/>
<path d="M562.962 375.648V429.351L516 456.238L469.038 429.351V375.648L516 348.761L562.962 375.648Z" fill="#F2DC5D" stroke="#FFF2AA" stroke-width="10"/>
<path d="M615.962 463.648V517.351L569 544.238L522.038 517.351V463.648L569 436.761L615.962 463.648Z" fill="#F2DC5D" stroke="#FFF2AA" stroke-width="10"/>
<path d="M412.962 463.648V517.351L366 544.238L319.038 517.351V463.648L366 436.761L412.962 463.648Z" fill="#F2DC5D" stroke="#FFF2AA" stroke-width="10"/>
<path d="M465.962 551.648V605.351L419 632.238L372.038 605.351V551.648L419 524.761L465.962 551.648Z" fill="#F2DC5D" stroke="#FFF2AA" stroke-width="10"/>
<path d="M514.962 463.648V517.351L468 544.238L421.038 517.351V463.648L468 436.761L514.962 463.648Z" fill="#F2DC5D" stroke="#FFF2AA" stroke-width="10"/>
<path d="M410.962 287.648V341.351L364 368.238L317.038 341.351V287.648L364 260.761L410.962 287.648Z" fill="#F2DC5D" stroke="#FFF2AA" stroke-width="10"/>
<path d="M463.962 375.648V429.351L417 456.238L370.038 429.351V375.648L417 348.761L463.962 375.648Z" fill="#F2DC5D" stroke="#FFF2AA" stroke-width="10"/>
<path d="M512.962 287.648V341.351L466 368.238L419.038 341.351V287.648L466 260.761L512.962 287.648Z" fill="#F2DC5D" stroke="#FFF2AA" stroke-width="10"/>
<path d="M562.962 375.648V429.351L516 456.238L469.038 429.351V375.648L516 348.761L562.962 375.648Z" fill="#F2DC5D" stroke="#FFF2AA" stroke-width="10"/>
<path d="M615.962 463.648V517.351L569 544.238L522.038 517.351V463.648L569 436.761L615.962 463.648Z" fill="#F2DC5D" stroke="#FFF2AA" stroke-width="10"/>
<path d="M412.962 463.648V517.351L366 544.238L319.038 517.351V463.648L366 436.761L412.962 463.648Z" fill="#F2DC5D" stroke="#FFF2AA" stroke-width="10"/>
<path d="M465.962 551.648V605.351L419 632.238L372.038 605.351V551.648L419 524.761L465.962 551.648Z" fill="#F2DC5D" stroke="#FFF2AA" stroke-width="10"/>
<path d="M514.962 463.648V517.351L468 544.238L421.038 517.351V463.648L468 436.761L514.962 463.648Z" fill="#F2DC5D" stroke="#FFF2AA" stroke-width="10"/>
<path d="M258.962 544.648V598.351L212 625.238L165.038 598.351V544.648L212 517.761L258.962 544.648Z" fill="#F2DC5D" stroke="#FFF2AA" stroke-width="10"/>
<path d="M311.962 632.648V686.351L265 713.238L218.038 686.351V632.648L265 605.761L311.962 632.648Z" fill="#F2DC5D" stroke="#FFF2AA" stroke-width="10"/>
<path d="M360.962 544.648V598.351L314 625.238L267.038 598.351V544.648L314 517.761L360.962 544.648Z" fill="#F2DC5D" stroke="#FFF2AA" stroke-width="10"/>
<path d="M410.962 632.648V686.351L364 713.238L317.038 686.351V632.648L364 605.761L410.962 632.648Z" fill="#F2DC5D" stroke="#FFF2AA" stroke-width="10"/>
<path d="M463.962 720.648V774.351L417 801.238L370.038 774.351V720.648L417 693.761L463.962 720.648Z" fill="#F2DC5D" stroke="#FFF2AA" stroke-width="10"/>
<path d="M512.962 632.648V686.351L466 713.238L419.038 686.351V632.648L466 605.761L512.962 632.648Z" fill="#F2DC5D" stroke="#FFF2AA" stroke-width="10"/>
<path d="M260.962 720.648V774.351L214 801.238L167.038 774.351V720.648L214 693.761L260.962 720.648Z" fill="#F2DC5D" stroke="#FFF2AA" stroke-width="10"/>
<path d="M313.962 808.648V862.351L267 889.238L220.038 862.351V808.648L267 781.761L313.962 808.648Z" fill="#F2DC5D" stroke="#FFF2AA" stroke-width="10"/>
<path d="M362.962 720.648V774.351L316 801.238L269.038 774.351V720.648L316 693.761L362.962 720.648Z" fill="#F2DC5D" stroke="#FFF2AA" stroke-width="10"/>
<path d="M258.962 544.648V598.351L212 625.238L165.038 598.351V544.648L212 517.761L258.962 544.648Z" fill="#F2DC5D" stroke="#FFF2AA" stroke-width="10"/>
<path d="M311.962 632.648V686.351L265 713.238L218.038 686.351V632.648L265 605.761L311.962 632.648Z" fill="#F2DC5D" stroke="#FFF2AA" stroke-width="10"/>
<path d="M360.962 544.648V598.351L314 625.238L267.038 598.351V544.648L314 517.761L360.962 544.648Z" fill="#F2DC5D" stroke="#FFF2AA" stroke-width="10"/>
<path d="M410.962 632.648V686.351L364 713.238L317.038 686.351V632.648L364 605.761L410.962 632.648Z" fill="#F2DC5D" stroke="#FFF2AA" stroke-width="10"/>
<path d="M463.962 720.648V774.351L417 801.238L370.038 774.351V720.648L417 693.761L463.962 720.648Z" fill="#F2DC5D" stroke="#FFF2AA" stroke-width="10"/>
<path d="M512.962 632.648V686.351L466 713.238L419.038 686.351V632.648L466 605.761L512.962 632.648Z" fill="#F2DC5D" stroke="#FFF2AA" stroke-width="10"/>
<path d="M260.962 720.648V774.351L214 801.238L167.038 774.351V720.648L214 693.761L260.962 720.648Z" fill="#F2DC5D" stroke="#FFF2AA" stroke-width="10"/>
<path d="M313.962 808.648V862.351L267 889.238L220.038 862.351V808.648L267 781.761L313.962 808.648Z" fill="#F2DC5D" stroke="#FFF2AA" stroke-width="10"/>
<path d="M362.962 720.648V774.351L316 801.238L269.038 774.351V720.648L316 693.761L362.962 720.648Z" fill="#F2DC5D" stroke="#FFF2AA" stroke-width="10"/>
</svg>
