<svg width="176" height="219" viewBox="0 0 176 219" fill="none" xmlns="http://www.w3.org/2000/svg">
<rect width="176" height="219" fill="white"/>
<rect x="23" y="93" width="130" height="10" fill="black"/>
<rect x="23" y="134" width="130" height="10" fill="black"/>
<path d="M34.56 24.36C34.56 25.1067 34.38 25.8067 34.02 26.46C33.6733 27.1133 33.12 27.64 32.36 28.04C31.6133 28.44 30.6667 28.64 29.52 28.64H27.18V34H24.38V20.04H29.52C30.6 20.04 31.52 20.2267 32.28 20.6C33.04 20.9733 33.6067 21.4867 33.98 22.14C34.3667 22.7933 34.56 23.5333 34.56 24.36ZM29.4 26.38C30.1733 26.38 30.7467 26.2067 31.12 25.86C31.4933 25.5 31.68 25 31.68 24.36C31.68 23 30.92 22.32 29.4 22.32H27.18V26.38H29.4ZM41.428 20.04C42.8946 20.04 44.1813 20.3267 45.288 20.9C46.408 21.4733 47.268 22.2933 47.868 23.36C48.4813 24.4133 48.788 25.64 48.788 27.04C48.788 28.44 48.4813 29.6667 47.868 30.72C47.268 31.76 46.408 32.5667 45.288 33.14C44.1813 33.7133 42.8946 34 41.428 34H36.548V20.04H41.428ZM41.328 31.62C42.7946 31.62 43.928 31.22 44.728 30.42C45.528 29.62 45.928 28.4933 45.928 27.04C45.928 25.5867 45.528 24.4533 44.728 23.64C43.928 22.8133 42.7946 22.4 41.328 22.4H39.348V31.62H41.328ZM59.5039 20.04V22.3H53.6839V25.88H58.1439V28.1H53.6839V34H50.8839V20.04H59.5039Z" fill="black"/>
<rect x="23" y="175" width="130" height="10" fill="black"/>
<rect x="23" y="52" width="104" height="10" fill="black"/>
</svg>
