<svg width="176" height="189" viewBox="0 0 176 189" fill="none" xmlns="http://www.w3.org/2000/svg">
<rect y="6" width="176" height="183" fill="white"/>
<rect x="13" y="65" width="113" height="14" fill="black"/>
<rect x="13" y="106" width="138" height="14" fill="black"/>
<rect x="13" y="147" width="138" height="12" fill="black"/>
<path d="M27.208 44L21.896 34.88H18.376V44H15.464V21.696H22.664C24.3493 21.696 25.768 21.984 26.92 22.56C28.0933 23.136 28.968 23.9147 29.544 24.896C30.12 25.8773 30.408 26.9973 30.408 28.256C30.408 29.792 29.96 31.1467 29.064 32.32C28.1893 33.4933 26.8667 34.272 25.096 34.656L30.696 44H27.208ZM18.376 32.544H22.664C24.2427 32.544 25.4267 32.16 26.216 31.392C27.0053 30.6027 27.4 29.5573 27.4 28.256C27.4 26.9333 27.0053 25.9093 26.216 25.184C25.448 24.4587 24.264 24.096 22.664 24.096H18.376V32.544ZM50.9328 34.56C50.9328 35.1147 50.9008 35.7013 50.8368 36.32H36.8208C36.9274 38.048 37.5141 39.4027 38.5808 40.384C39.6688 41.344 40.9808 41.824 42.5168 41.824C43.7754 41.824 44.8208 41.536 45.6528 40.96C46.5061 40.3627 47.1034 39.5733 47.4448 38.592H50.5808C50.1114 40.2773 49.1728 41.6533 47.7648 42.72C46.3568 43.7653 44.6074 44.288 42.5168 44.288C40.8528 44.288 39.3594 43.9147 38.0368 43.168C36.7354 42.4213 35.7114 41.3653 34.9648 40C34.2181 38.6133 33.8448 37.0133 33.8448 35.2C33.8448 33.3867 34.2074 31.7973 34.9328 30.432C35.6581 29.0667 36.6714 28.0213 37.9728 27.296C39.2954 26.5493 40.8101 26.176 42.5168 26.176C44.1808 26.176 45.6528 26.5387 46.9328 27.264C48.2128 27.9893 49.1941 28.992 49.8768 30.272C50.5808 31.5307 50.9328 32.96 50.9328 34.56ZM47.9248 33.952C47.9248 32.8427 47.6794 31.8933 47.1888 31.104C46.6981 30.2933 46.0261 29.6853 45.1728 29.28C44.3408 28.8533 43.4128 28.64 42.3888 28.64C40.9168 28.64 39.6581 29.1093 38.6128 30.048C37.5888 30.9867 37.0021 32.288 36.8528 33.952H47.9248ZM57.6885 29.696C58.2645 28.6933 59.1178 27.8613 60.2485 27.2C61.4005 26.5173 62.7338 26.176 64.2485 26.176C65.8058 26.176 67.2138 26.5493 68.4725 27.296C69.7525 28.0427 70.7552 29.0987 71.4805 30.464C72.2058 31.808 72.5685 33.376 72.5685 35.168C72.5685 36.9387 72.2058 38.5173 71.4805 39.904C70.7552 41.2907 69.7525 42.368 68.4725 43.136C67.2138 43.904 65.8058 44.288 64.2485 44.288C62.7552 44.288 61.4325 43.9573 60.2805 43.296C59.1498 42.6133 58.2858 41.7707 57.6885 40.768V52.32H54.7765V26.464H57.6885V29.696ZM69.5925 35.168C69.5925 33.8453 69.3258 32.6933 68.7925 31.712C68.2592 30.7307 67.5338 29.984 66.6165 29.472C65.7205 28.96 64.7285 28.704 63.6405 28.704C62.5738 28.704 61.5818 28.9707 60.6645 29.504C59.7685 30.016 59.0432 30.7733 58.4885 31.776C57.9552 32.7573 57.6885 33.8987 57.6885 35.2C57.6885 36.5227 57.9552 37.6853 58.4885 38.688C59.0432 39.6693 59.7685 40.4267 60.6645 40.96C61.5818 41.472 62.5738 41.728 63.6405 41.728C64.7285 41.728 65.7205 41.472 66.6165 40.96C67.5338 40.4267 68.2592 39.6693 68.7925 38.688C69.3258 37.6853 69.5925 36.512 69.5925 35.168ZM84.0495 44.288C82.4068 44.288 80.9135 43.9147 79.5695 43.168C78.2468 42.4213 77.2015 41.3653 76.4335 40C75.6868 38.6133 75.3135 37.0133 75.3135 35.2C75.3135 33.408 75.6975 31.8293 76.4655 30.464C77.2548 29.0773 78.3215 28.0213 79.6655 27.296C81.0095 26.5493 82.5135 26.176 84.1775 26.176C85.8415 26.176 87.3455 26.5493 88.6895 27.296C90.0335 28.0213 91.0895 29.0667 91.8575 30.432C92.6468 31.7973 93.0415 33.3867 93.0415 35.2C93.0415 37.0133 92.6362 38.6133 91.8255 40C91.0362 41.3653 89.9588 42.4213 88.5935 43.168C87.2282 43.9147 85.7135 44.288 84.0495 44.288ZM84.0495 41.728C85.0948 41.728 86.0762 41.4827 86.9935 40.992C87.9108 40.5013 88.6468 39.7653 89.2015 38.784C89.7775 37.8027 90.0655 36.608 90.0655 35.2C90.0655 33.792 89.7882 32.5973 89.2335 31.616C88.6788 30.6347 87.9535 29.9093 87.0575 29.44C86.1615 28.9493 85.1908 28.704 84.1455 28.704C83.0788 28.704 82.0975 28.9493 81.2015 29.44C80.3268 29.9093 79.6228 30.6347 79.0895 31.616C78.5562 32.5973 78.2895 33.792 78.2895 35.2C78.2895 36.6293 78.5455 37.8347 79.0575 38.816C79.5908 39.7973 80.2948 40.5333 81.1695 41.024C82.0442 41.4933 83.0042 41.728 84.0495 41.728ZM99.7823 29.312C100.294 28.3093 101.02 27.5307 101.958 26.976C102.918 26.4213 104.081 26.144 105.446 26.144V29.152H104.678C101.414 29.152 99.7823 30.9227 99.7823 34.464V44H96.8703V26.464H99.7823V29.312ZM112.36 28.864V39.2C112.36 40.0533 112.541 40.6613 112.904 41.024C113.266 41.3653 113.896 41.536 114.792 41.536H116.936V44H114.312C112.69 44 111.474 43.6267 110.664 42.88C109.853 42.1333 109.448 40.9067 109.448 39.2V28.864H107.176V26.464H109.448V22.048H112.36V26.464H116.936V28.864H112.36Z" fill="black"/>
</svg>
