<svg width="477" height="290" viewBox="0 0 477 290" fill="none" xmlns="http://www.w3.org/2000/svg">
<rect x="390.57" y="137" width="44" height="80" fill="#D9D9D9"/>
<ellipse cx="390.892" cy="90.9886" rx="64" ry="73.5" transform="rotate(20.0522 390.892 90.9886)" fill="#606060"/>
<ellipse cx="385.57" cy="90.8548" rx="55.866" ry="65.6812" transform="rotate(20.0522 385.57 90.8548)" fill="#D9D9D9"/>
<path d="M295.57 53L298.07 48.5L386.138 90.1958L381.526 99.0689L295.57 53Z" fill="#747474"/>
<rect width="44" height="80" transform="matrix(-1 0 0 1 85.6436 210)" fill="#D9D9D9"/>
<ellipse cx="64" cy="73.5" rx="64" ry="73.5" transform="matrix(-0.93938 0.342877 0.342877 0.93938 120.241 73)" fill="#606060"/>
<ellipse cx="55.866" cy="65.6812" rx="55.866" ry="65.6812" transform="matrix(-0.93938 0.342877 0.342877 0.93938 120.602 83)" fill="#D9D9D9"/>
<path d="M180.644 126L178.144 121.5L90.0758 163.196L94.6877 172.069L180.644 126Z" fill="#747474"/>
<rect width="38.0961" height="475.559" transform="matrix(0.256086 0.966654 -0.971371 0.237568 462.944 79)" fill="#F2DC5D"/>
<path d="M27.2239 185.564L72.2812 213.756L46.5616 220.046L1.00002 191.978L27.2239 185.564Z" fill="black"/>
<path d="M6.64817 213.298L24.8765 225.35L10.7559 228.803L7.80347 217.659L6.64817 213.298Z" fill="black"/>
<path d="M76.6459 173.477L121.703 201.669L95.9836 207.959L50.422 179.89L76.6459 173.477Z" fill="black"/>
<path d="M125.059 161.636L170.117 189.829L144.397 196.119L98.8354 168.05L125.059 161.636Z" fill="black"/>
<path d="M174.481 149.549L219.539 177.741L193.819 184.032L148.257 155.963L174.481 149.549Z" fill="black"/>
<path d="M224.912 137.216L269.969 165.408L244.25 171.698L198.688 143.629L224.912 137.216Z" fill="black"/>
<path d="M274.334 125.128L319.391 153.32L293.672 159.611L248.11 131.542L274.334 125.128Z" fill="black"/>
<path d="M324.764 112.795L369.822 140.987L344.102 147.277L298.541 119.208L324.764 112.795Z" fill="black"/>
<path d="M374.186 100.708L419.244 128.9L393.524 135.19L347.963 107.121L374.186 100.708Z" fill="black"/>
<path d="M424.617 88.3737L469.674 116.566L443.955 122.856L398.393 94.7873L424.617 88.3737Z" fill="black"/>
<path d="M462.944 79L465.383 88.2064L467.052 94.5056L447.815 82.7001L462.944 79Z" fill="black"/>
<rect width="38" height="458" transform="matrix(-0.246676 0.969098 0.969098 0.246676 23.3737 111)" fill="#F2DC5D"/>
<path d="M442.024 217.564L398.732 245.756L423.444 252.046L467.221 223.978L442.024 217.564Z" fill="black"/>
<path d="M461.794 245.298L444.28 257.35L457.847 260.803L460.684 249.659L461.794 245.298Z" fill="black"/>
<path d="M394.538 205.477L351.246 233.669L375.958 239.959L419.735 211.89L394.538 205.477Z" fill="black"/>
<path d="M348.022 193.636L304.729 221.829L329.441 228.119L373.218 200.05L348.022 193.636Z" fill="black"/>
<path d="M300.536 181.549L257.244 209.741L281.956 216.032L325.732 187.963L300.536 181.549Z" fill="black"/>
<path d="M252.081 169.216L208.789 197.408L233.501 203.698L277.277 175.629L252.081 169.216Z" fill="black"/>
<path d="M204.595 157.128L161.303 185.32L186.015 191.611L229.792 163.542L204.595 157.128Z" fill="black"/>
<path d="M156.14 144.795L112.848 172.987L137.56 179.277L181.337 151.208L156.14 144.795Z" fill="black"/>
<path d="M108.654 132.708L65.3622 160.9L90.0742 167.19L133.851 139.121L108.654 132.708Z" fill="black"/>
<path d="M60.1994 120.374L16.9073 148.566L41.6193 154.856L85.3959 126.787L60.1994 120.374Z" fill="black"/>
<path d="M23.3737 111L21.0302 120.206L19.4268 126.506L37.9101 114.7L23.3737 111Z" fill="black"/>
</svg>
