<svg width="221" height="200" viewBox="0 0 221 200" fill="none" xmlns="http://www.w3.org/2000/svg">
<rect x="6" y="11" width="209" height="173" fill="black"/>
<rect width="221" height="40" fill="#F2DC5D"/>
<rect y="53" width="221" height="40" fill="#F2DC5D"/>
<rect y="106" width="221" height="40" fill="#F2DC5D"/>
<rect y="160" width="221" height="40" fill="#F2DC5D"/>
<rect x="15" y="12" width="16" height="16" fill="black"/>
<rect x="50" y="12" width="16" height="16" fill="black"/>
<rect x="85" y="12" width="16" height="16" fill="black"/>
<rect x="120" y="12" width="86" height="16" fill="black"/>
<rect x="15" y="65" width="16" height="16" fill="black"/>
<rect x="50" y="65" width="16" height="16" fill="black"/>
<rect x="85" y="65" width="16" height="16" fill="black"/>
<rect x="120" y="65" width="86" height="16" fill="black"/>
<rect x="15" y="118" width="16" height="16" fill="black"/>
<rect x="50" y="118" width="16" height="16" fill="black"/>
<rect x="85" y="118" width="16" height="16" fill="black"/>
<rect x="120" y="118" width="86" height="16" fill="black"/>
<rect x="15" y="171" width="16" height="16" fill="black"/>
<rect x="50" y="171" width="16" height="16" fill="black"/>
<rect x="85" y="171" width="16" height="16" fill="black"/>
<rect x="120" y="171" width="86" height="16" fill="black"/>
</svg>
