<svg width="226" height="196" viewBox="0 0 226 196" fill="none" xmlns="http://www.w3.org/2000/svg">
<rect x="6.77087" y="57.692" width="68.8946" height="31.5656" rx="15.7828" fill="#F2DC5D"/>
<ellipse cx="79.3695" cy="66.655" rx="2.59281" ry="2.72789" fill="black"/>
<ellipse cx="67.5167" cy="66.655" rx="2.59281" ry="2.72789" fill="black"/>
<rect x="48.2558" y="57.692" width="9.26003" height="31.5656" fill="black"/>
<rect x="33.0694" y="57.692" width="8.14883" height="31.5656" fill="black"/>
<rect x="22.3277" y="57.692" width="4.07442" height="31.5656" fill="black"/>
<rect y="72.0428" width="8.88963" height="3.11759" fill="black"/>
<rect width="41.0544" height="21.2065" rx="10.6032" transform="matrix(0.903049 0.429537 -0.394802 0.918766 21.4401 40)" fill="white"/>
<rect x="76.7709" y="98.692" width="68.8946" height="31.5656" rx="15.7828" fill="#F2DC5D"/>
<ellipse cx="149.37" cy="107.655" rx="2.59281" ry="2.72789" fill="black"/>
<ellipse cx="137.517" cy="107.655" rx="2.59281" ry="2.72789" fill="black"/>
<rect x="118.256" y="98.692" width="9.26003" height="31.5656" fill="black"/>
<rect x="103.069" y="98.692" width="8.14883" height="31.5656" fill="black"/>
<rect x="92.3277" y="98.692" width="4.07442" height="31.5656" fill="black"/>
<rect x="70" y="113.043" width="8.88963" height="3.11759" fill="black"/>
<rect width="41.0544" height="21.2065" rx="10.6032" transform="matrix(0.903049 0.429537 -0.394802 0.918766 91.4401 81)" fill="white"/>
<rect x="150.771" y="140.692" width="68.8946" height="31.5656" rx="15.7828" fill="#F2DC5D"/>
<ellipse cx="223.37" cy="149.655" rx="2.59281" ry="2.72789" fill="black"/>
<ellipse cx="211.517" cy="149.655" rx="2.59281" ry="2.72789" fill="black"/>
<rect x="192.256" y="140.692" width="9.26003" height="31.5656" fill="black"/>
<rect x="177.069" y="140.692" width="8.14883" height="31.5656" fill="black"/>
<rect x="166.328" y="140.692" width="4.07442" height="31.5656" fill="black"/>
<rect x="144" y="155.043" width="8.88963" height="3.11759" fill="black"/>
<rect width="41.0544" height="21.2065" rx="10.6032" transform="matrix(0.903049 0.429537 -0.394802 0.918766 165.44 123)" fill="white"/>
<path d="M184.44 99V93.84H194.08V123H188.32V99H184.44Z" fill="black"/>
<path d="M116.88 78.68C119.44 76.5467 121.48 74.7733 123 73.36C124.52 71.92 125.787 70.4267 126.8 68.88C127.813 67.3333 128.32 65.8133 128.32 64.32C128.32 62.96 128 61.8933 127.36 61.12C126.72 60.3467 125.733 59.96 124.4 59.96C123.067 59.96 122.04 60.4133 121.32 61.32C120.6 62.2 120.227 63.4133 120.2 64.96H114.76C114.867 61.76 115.813 59.3333 117.6 57.68C119.413 56.0267 121.707 55.2 124.48 55.2C127.52 55.2 129.853 56.0133 131.48 57.64C133.107 59.24 133.92 61.36 133.92 64C133.92 66.08 133.36 68.0667 132.24 69.96C131.12 71.8533 129.84 73.5067 128.4 74.92C126.96 76.3067 125.08 77.9867 122.76 79.96H134.56V84.6H114.8V80.44L116.88 78.68Z" fill="black"/>
<path d="M32.2 16.52C32.3333 13.8533 33.2667 11.8 35 10.36C36.76 8.89333 39.0667 8.16 41.92 8.16C43.8667 8.16 45.5333 8.50666 46.92 9.2C48.3067 9.86666 49.3467 10.7867 50.04 11.96C50.76 13.1067 51.12 14.4133 51.12 15.88C51.12 17.56 50.68 18.9867 49.8 20.16C48.9467 21.3067 47.92 22.08 46.72 22.48V22.64C48.2667 23.12 49.4667 23.9733 50.32 25.2C51.2 26.4267 51.64 28 51.64 29.92C51.64 31.52 51.2667 32.9467 50.52 34.2C49.8 35.4533 48.72 36.44 47.28 37.16C45.8667 37.8533 44.16 38.2 42.16 38.2C39.1467 38.2 36.6933 37.44 34.8 35.92C32.9067 34.4 31.9067 32.16 31.8 29.2H37.24C37.2933 30.5067 37.7333 31.56 38.56 32.36C39.4133 33.1333 40.5733 33.52 42.04 33.52C43.4 33.52 44.44 33.1467 45.16 32.4C45.9067 31.6267 46.28 30.64 46.28 29.44C46.28 27.84 45.7733 26.6933 44.76 26C43.7467 25.3067 42.1733 24.96 40.04 24.96H38.88V20.36H40.04C43.8267 20.36 45.72 19.0933 45.72 16.56C45.72 15.4133 45.3733 14.52 44.68 13.88C44.0133 13.24 43.04 12.92 41.76 12.92C40.5067 12.92 39.5333 13.2667 38.84 13.96C38.1733 14.6267 37.7867 15.48 37.68 16.52H32.2Z" fill="black"/>
<rect x="19" y="75" width="5" height="30" fill="#AC7B51"/>
<rect x="192" y="166" width="5" height="30" fill="#AC7B51"/>
<path d="M21.5 81.5C21.5 81.5 39.5 116.5 96 143C152.5 169.5 194.5 171 194.5 171" stroke="#AC7B51" stroke-width="3"/>
</svg>
