<svg width="95" height="48" viewBox="0 0 95 48" fill="none" xmlns="http://www.w3.org/2000/svg">
<rect x="7.0752" y="16.0123" width="71.991" height="28.5689" rx="14.2845" fill="#F2DC5D"/>
<ellipse cx="82.9368" cy="24.1245" rx="2.70934" ry="2.46892" fill="black"/>
<ellipse cx="70.5511" cy="24.1245" rx="2.70934" ry="2.46892" fill="black"/>
<rect x="50.4247" y="16.0123" width="9.67622" height="28.5689" fill="black"/>
<rect x="34.5557" y="16.0123" width="8.51507" height="28.5689" fill="black"/>
<rect x="23.3312" y="16.0123" width="4.25753" height="28.5689" fill="black"/>
<rect y="29.0007" width="9.28917" height="2.82162" fill="black"/>
<rect width="41.8993" height="19.685" rx="9.84252" transform="matrix(0.924608 0.380919 -0.444432 0.895813 22.4037 0)" fill="white"/>
<rect x="7.0752" y="16.0123" width="71.991" height="28.5689" rx="14.2845" fill="#F2DC5D"/>
<ellipse cx="82.9368" cy="24.1245" rx="2.70934" ry="2.46892" fill="black"/>
<ellipse cx="70.5511" cy="24.1245" rx="2.70934" ry="2.46892" fill="black"/>
<rect x="50.4247" y="16.0123" width="9.67622" height="28.5689" fill="black"/>
<rect x="34.5557" y="16.0123" width="8.51507" height="28.5689" fill="black"/>
<rect x="23.3312" y="16.0123" width="4.25753" height="28.5689" fill="black"/>
<rect y="29.0007" width="9.28917" height="2.82162" fill="black"/>
<rect width="41.8993" height="19.685" rx="9.84252" transform="matrix(0.924608 0.380919 -0.444432 0.895813 22.4037 0)" fill="white"/>
<rect x="73.925" y="14" width="5.36039" height="31.6555" transform="rotate(46.4025 73.925 14)" fill="#AC7B51"/>
<rect x="74.4397" width="25.8076" height="13.0346" transform="rotate(46.4025 74.4397 0)" fill="#D9D9D9"/>
<rect x="86" y="31" width="9" height="2" fill="#D9D9D9"/>
<path d="M90.5 43L89 32.0909H92L90.5 43Z" fill="#D9D9D9"/>
</svg>
